<?xml version="1.0" encoding="UTF-8"?>
<svg id="Layer_2" data-name="Layer 2" xmlns="http://www.w3.org/2000/svg" viewBox="0 0 57.53 34.02">
  <defs>
    <style>
      .cls-1 {
        fill: #fff;
      }
    </style>
  </defs>
  <g id="Artwork">
    <g>
      <g>
        <path class="cls-1" d="M12.59.25h.95s0,14.76,0,14.76h-.82S2.07,4.11,2.07,4.11v10.9s-.93,0-.93,0V1.73S0,.25,0,.25h1.98s10.61,10.86,10.61,10.86V.25Z"/>
        <path class="cls-1" d="M29.42,2.64c.65.76,1.13,1.59,1.44,2.48.32.89.47,1.73.47,2.52,0,.52-.07,1.07-.22,1.65-.15.58-.36,1.15-.62,1.71-.28.58-.64,1.12-1.08,1.63s-.95.97-1.54,1.36-1.25.71-1.99.94c-.74.23-1.56.35-2.46.35-1.35,0-2.51-.25-3.47-.75s-1.76-1.13-2.38-1.89c-.63-.76-1.08-1.58-1.37-2.48-.29-.89-.43-1.73-.43-2.52s.14-1.65.43-2.55.75-1.73,1.37-2.48c.63-.75,1.42-1.37,2.39-1.87l.11-.04L18.98,0h4.45c1.35,0,2.52.25,3.52.75,1,.5,1.82,1.13,2.47,1.89ZM26.17,13.6c.72-.63,1.28-1.5,1.68-2.59.4-1.1.58-2.28.54-3.56-.03-.89-.17-1.73-.42-2.53-.25-.8-.59-1.5-1-2.11-.41-.6-.89-1.09-1.42-1.45-.25-.17-.51-.31-.76-.42-.49-.2-.99-.29-1.49-.27s-.99.14-1.47.38c-.21.11-.42.24-.61.38-.8.6-1.43,1.48-1.89,2.64-.46,1.15-.66,2.41-.6,3.78.04,1.39.35,2.65.92,3.79s1.3,1.96,2.18,2.48c.17.1.34.18.51.25.48.2.97.29,1.48.27.51-.01.99-.14,1.46-.38.32-.17.63-.38.91-.63Z"/>
        <path class="cls-1" d="M45.15.25l-5.31,13.56.49,1.2h-2.74S31.61.25,31.61.25h2.78s4.87,12.15,4.87,12.15h.08s4.39-11.22,4.39-11.22l-.82-.93h2.23Z"/>
        <path class="cls-1" d="M50.91.25l6.62,14.76h-3s-1.2-2.66-1.2-2.66l-.89-2h-5.86s-1.92,4.66-1.92,4.66h-.8s5.08-12.44,5.08-12.44l-1.03-2.32h1.96s1.03,0,1.03,0ZM46.86,9.72h5.29s-2.13-4.77-2.13-4.77l-.63-1.39-2.53,6.16Z"/>
      </g>
      <g>
        <path class="cls-1" d="M15.89,19h.95s0,14.76,0,14.76h-.82s-10.65-10.9-10.65-10.9v10.9s-.93,0-.93,0v-13.29s-1.14-1.48-1.14-1.48h1.98s10.61,10.86,10.61,10.86v-10.86Z"/>
        <path class="cls-1" d="M32.72,21.38c.65.76,1.13,1.59,1.44,2.48.32.89.47,1.73.47,2.52,0,.52-.07,1.07-.22,1.65-.15.58-.36,1.15-.62,1.71-.28.58-.64,1.12-1.08,1.63s-.95.97-1.54,1.36-1.25.71-1.99.94c-.74.23-1.56.35-2.46.35-1.35,0-2.51-.25-3.47-.75s-1.76-1.13-2.38-1.89c-.63-.76-1.08-1.58-1.37-2.48s-.43-1.73-.43-2.52c0-.8.14-1.65.43-2.55s.75-1.73,1.37-2.48c.63-.75,1.42-1.37,2.39-1.87l.11-.04-1.1-.7h4.45c1.35,0,2.52.25,3.52.75,1,.5,1.82,1.13,2.47,1.89ZM29.47,32.35c.72-.63,1.28-1.5,1.68-2.59.4-1.1.58-2.28.54-3.56-.03-.89-.17-1.73-.42-2.53-.25-.8-.59-1.5-1-2.11-.41-.6-.89-1.09-1.42-1.45-.25-.17-.51-.31-.76-.42-.49-.2-.99-.29-1.49-.27s-.99.14-1.47.38c-.21.11-.42.24-.61.38-.8.6-1.43,1.48-1.89,2.64-.46,1.15-.66,2.41-.6,3.78.04,1.39.35,2.65.92,3.79s1.3,1.96,2.18,2.48c.17.1.34.18.51.25.48.2.97.29,1.48.27.51-.01.99-.14,1.46-.38.32-.17.63-.38.91-.63Z"/>
        <path class="cls-1" d="M36.28,19h3.37s0,14.76,0,14.76h-2.64s0-13.05,0-13.05l-.74-1.71Z"/>
        <path class="cls-1" d="M50.5,28.22l3.73,5.55h-2.15s-3.61-5.31-3.61-5.31c-1.32-.01-2.37-.25-3.14-.72v6.03s-2.57,0-2.57,0v-13.05s-.74-1.71-.74-1.71h.74s6.26,0,6.26,0c1.29,0,2.4.46,3.32,1.38.92.92,1.38,2.04,1.38,3.34,0,.69-.14,1.34-.41,1.95-.27.61-.66,1.14-1.15,1.57-.49.44-1.05.76-1.67.97ZM48.05,27.71c.63,0,1.23-.19,1.78-.56s.99-.86,1.32-1.48c.32-.61.49-1.26.49-1.94s-.16-1.33-.47-1.94c-.32-.61-.75-1.11-1.29-1.49-.54-.38-1.13-.57-1.76-.57h-.04s-2.74,0-2.74,0v7.04c.08.13.2.23.36.32.66.35,1.36.55,2.09.59.1.01.19.02.27.02Z"/>
      </g>
    </g>
  </g>
</svg>