<?xml version="1.0" encoding="UTF-8"?>
<svg id="Layer_2" data-name="Layer 2" xmlns="http://www.w3.org/2000/svg" viewBox="0 0 90.74 34.02">
  <defs>
    <style>
      .cls-1 {
        fill: #fff;
      }
    </style>
  </defs>
  <g id="Artwork">
    <g>
      <g>
        <path class="cls-1" d="M.25,13.4c.33,0,.61-.12.84-.35.23-.23.36-.51.37-.84V1.7c-.04-.44-.25-.77-.62-.98-.19-.1-.38-.15-.59-.15H0s0-.19,0-.19h7.23c.39,0,.82-.04,1.28-.11s.79-.15.98-.23v3.3s-.19,0-.19,0v-.23c0-.57-.17-1.02-.5-1.37-.33-.35-.78-.53-1.35-.56h-3.17v5.49h2.49c.47-.01.85-.17,1.15-.48.3-.31.45-.69.45-1.14v-.17s.19,0,.19,0v4.36s-.19,0-.19,0v-.15c0-.63-.25-1.09-.76-1.4-.25-.14-.53-.21-.83-.23h-2.51v5.3h2.47c.92,0,1.69-.26,2.31-.79.62-.53,1.08-1.28,1.39-2.25h.19s-.87,3.85-.87,3.85H0s0-.19,0-.19h.25Z"/>
        <path class="cls-1" d="M18.83,1.15v11.08c.01.33.13.6.37.83.23.23.51.34.84.34h.23s.02.19.02.19h-5.74s0-.19,0-.19h.25c.31,0,.59-.11.82-.34.23-.23.36-.5.39-.81V1.15h-2.55c-.58.01-1.04.2-1.38.55-.34.35-.51.81-.51,1.38v.23s-.19,0-.19,0V.02c.18.08.49.15.95.23.46.08.88.11,1.27.11h7.6c.62-.01,1.12-.06,1.51-.15.39-.09.63-.15.72-.19v3.28s-.19,0-.19,0v-.23c0-.57-.17-1.02-.51-1.38-.34-.35-.8-.53-1.38-.55h-2.53Z"/>
        <path class="cls-1" d="M24.72,13.4c.33,0,.61-.12.84-.35.23-.23.36-.51.37-.84V1.7c-.04-.44-.25-.77-.62-.98-.19-.1-.38-.15-.59-.15h-.25s0-.19,0-.19h7.23c.39,0,.82-.04,1.28-.11s.79-.15.98-.23v3.3s-.19,0-.19,0v-.23c0-.57-.17-1.02-.5-1.37-.33-.35-.78-.53-1.35-.56h-3.17v5.49h2.49c.47-.01.85-.17,1.15-.48.3-.31.45-.69.45-1.14v-.17s.19,0,.19,0v4.36s-.19,0-.19,0v-.15c0-.63-.25-1.09-.76-1.4-.25-.14-.53-.21-.83-.23h-2.51v5.3h2.47c.92,0,1.69-.26,2.31-.79.62-.53,1.08-1.28,1.39-2.25h.19s-.87,3.85-.87,3.85h-9.77s0-.19,0-.19h.25Z"/>
        <path class="cls-1" d="M41.51,1.21h-.81s-.04,0-.06,0v11c.01.47.21.81.6,1.04.19.1.39.15.6.15h.25s0,.19,0,.19h-5.74s0-.19,0-.19h.25c.45,0,.8-.19,1.04-.58.1-.18.16-.37.17-.59V1.75c-.01-.33-.14-.61-.37-.84-.23-.23-.51-.35-.84-.35h-.25s0-.19,0-.19h6.47c1.22,0,2.25.26,3.09.79.43.26.77.63,1.02,1.1.25.47.38,1.01.38,1.6s-.1,1.15-.31,1.65c-.21.5-.55.94-1.04,1.32-.48.38-1.07.6-1.75.68.73.24,1.37.79,1.93,1.66,1.36,2.18,2.36,3.47,3.02,3.89.33.2.74.31,1.23.32v.19s-1.85,0-1.85,0c-1.07,0-1.96-.15-2.68-.44-.72-.3-1.3-.8-1.76-1.52-.23-.36-.52-.91-.87-1.65-.35-.74-.58-1.26-.7-1.58-.34-.75-.77-1.18-1.28-1.26v-.19s.59,0,.59,0c.57,0,1.07-.17,1.5-.51.43-.34.73-.89.88-1.66.05-.26.08-.47.08-.62,0-1.03-.21-1.78-.62-2.24-.41-.46-.95-.7-1.6-.71h-.57Z"/>
        <path class="cls-1" d="M65,.57c-.31,0-.59.11-.81.33-.23.22-.35.49-.36.8v9.74c0,.84.06,1.55.17,2.13l.06.28h-.17s-9.53-9.08-9.53-9.08v7.49c0,.31.11.58.34.8s.5.33.81.33h.36s0,.19,0,.19h-5.72s0-.19,0-.19h.34c.33,0,.6-.11.83-.33.23-.22.34-.49.34-.82V2.45c0-.83-.06-1.52-.17-2.08l-.04-.28h.17s9.53,9.08,9.53,9.08V1.72c-.01-.33-.13-.6-.36-.82s-.5-.33-.81-.33h-.34s0-.19,0-.19h5.72s0,.19,0,.19h-.36Z"/>
        <path class="cls-1" d="M79.72,13.4h.17s0,.19,0,.19h-6.02s0-.19,0-.19h.17c.28,0,.48-.08.61-.25.13-.17.2-.33.2-.48s-.03-.3-.09-.45l-.92-2.32h-4.42s-.98,2.32-.98,2.32c-.06.16-.09.32-.09.46s.07.3.2.47.34.25.63.25h.15s0,.19,0,.19h-4.04s0-.19,0-.19h.17c.29,0,.58-.09.87-.26.29-.18.53-.44.72-.79l4.36-9.87C71.99,1.23,72.3.4,72.34,0h.17s5.6,12.3,5.6,12.3c.19.37.43.64.72.82.29.18.59.27.89.27ZM69.74,9.09h3.77s-1.83-4.64-1.83-4.64l-1.94,4.64Z"/>
        <path class="cls-1" d="M80.34,13.4c.33,0,.61-.12.84-.35.23-.23.36-.51.37-.84V1.75c-.01-.33-.14-.61-.37-.84-.23-.23-.51-.35-.84-.35h-.25s0-.19,0-.19h5.74s-.02.19-.02.19h-.23c-.33,0-.61.12-.85.35-.24.23-.36.51-.36.84v11.02h2.47c.92,0,1.69-.26,2.31-.79.62-.53,1.08-1.28,1.39-2.25h.19s-.87,3.85-.87,3.85h-9.77s0-.19,0-.19h.25Z"/>
      </g>
      <g>
        <path class="cls-1" d="M30.08,20.28c2.33,0,4.18.62,5.55,1.85,1.37,1.23,2.06,2.91,2.06,5.02s-.69,3.79-2.06,5.02c-1.37,1.23-3.22,1.85-5.55,1.85s-4.18-.62-5.55-1.85c-1.37-1.23-2.06-2.91-2.06-5.02,0-1.4.31-2.61.93-3.65.62-1.04,1.51-1.83,2.65-2.39,1.14-.55,2.48-.83,4.02-.83ZM26.78,31.59c.81,1.09,1.91,1.63,3.29,1.63s2.48-.54,3.29-1.63c.81-1.09,1.22-2.57,1.22-4.44,0-1.23-.18-2.31-.55-3.23-.37-.92-.89-1.62-1.57-2.11-.68-.49-1.48-.74-2.4-.74-1.38,0-2.48.54-3.29,1.63-.81,1.09-1.22,2.57-1.22,4.44,0,1.87.41,3.36,1.22,4.44Z"/>
        <path class="cls-1" d="M52.98,20.73h-.32c-.26,0-.49.09-.69.25-.2.17-.29.38-.29.63v7.36c0,1.55-.48,2.77-1.45,3.68-.97.91-2.3,1.36-3.98,1.36-1.99,0-3.51-.44-4.57-1.33-1.06-.89-1.58-2.12-1.58-3.69v-7.32c0-.28-.1-.5-.29-.68s-.43-.26-.71-.26h-.3s0-.19,0-.19h5.43s0,.19,0,.19h-.3c-.28,0-.51.09-.7.25-.19.17-.29.39-.3.65v7.21c0,1.33.33,2.39.98,3.17.65.78,1.55,1.17,2.7,1.17s2.05-.37,2.72-1.1c.67-.74,1.01-1.73,1.02-2.99v-7.45c0-.26-.1-.48-.29-.65-.2-.17-.43-.25-.71-.25h-.3s0-.19,0-.19h3.94s0,.19,0,.19Z"/>
        <path class="cls-1" d="M66.32,22.32c1.3,1.18,1.94,2.79,1.94,4.83,0,2.04-.65,3.65-1.94,4.83s-3.06,1.77-5.28,1.77h-6.85s0-.19,0-.19h.25c.33,0,.61-.12.84-.35.23-.23.36-.51.37-.84v-10.57c-.04-.3-.17-.56-.4-.76-.23-.21-.5-.31-.81-.31h-.25s0-.19,0-.19h6.85c2.23,0,3.99.59,5.28,1.77ZM60.79,32.96c.91,0,1.69-.24,2.35-.71.66-.47,1.17-1.14,1.52-2.02.35-.87.53-1.9.53-3.09,0-1.79-.39-3.2-1.18-4.25-.79-1.04-1.86-1.57-3.22-1.57h-2.32v11.62h2.32Z"/>
      </g>
    </g>
  </g>
</svg>