<?xml version="1.0" encoding="UTF-8"?>
<svg id="Layer_2" data-name="Layer 2" xmlns="http://www.w3.org/2000/svg" viewBox="0 0 112.01 34.02">
  <defs>
    <style>
      .cls-1 {
        fill: #fff;
      }
    </style>
  </defs>
  <g id="Artwork">
    <g>
      <g>
        <path class="cls-1" d="M.26,13.86c.35,0,.66-.12.91-.36.25-.24.38-.53.4-.87V1.76c-.04-.46-.27-.79-.67-1.02-.2-.1-.41-.16-.63-.16H0v-.2h7.81c.42,0,.88-.04,1.39-.12s.86-.16,1.06-.23v3.42h-.2v-.23c0-.59-.18-1.06-.54-1.42-.36-.36-.85-.55-1.46-.58h-3.43s0,5.68,0,5.68h2.69c.5-.01.92-.18,1.24-.5.33-.32.49-.71.49-1.18v-.18h.2v4.51h-.2v-.16c0-.65-.27-1.13-.82-1.44-.27-.14-.57-.22-.9-.23h-2.71s0,5.49,0,5.49h2.67c.99,0,1.82-.27,2.5-.82.67-.55,1.17-1.32,1.5-2.32h.2s-.94,3.98-.94,3.98H0v-.2h.26Z"/>
        <path class="cls-1" d="M20.03,1.19v11.46c.01.34.15.62.4.86.25.23.55.35.91.35h.24s.02.2.02.2h-6.2v-.2h.27c.34,0,.64-.12.89-.35.25-.23.39-.51.42-.84V1.19s-2.75,0-2.75,0c-.63.01-1.12.2-1.49.57-.37.36-.55.84-.55,1.42v.23h-.2V.02c.19.08.53.16,1.03.23.5.08.96.12,1.38.12h8.22c.67-.01,1.21-.06,1.63-.16.42-.09.68-.16.77-.19v3.4h-.2v-.23c0-.59-.18-1.06-.55-1.42-.37-.36-.86-.55-1.49-.57h-2.73Z"/>
        <path class="cls-1" d="M36.22,13.86c.35,0,.62-.08.81-.25.31-.3.48-.62.49-.96v-4.98s-6.61,0-6.61,0v4.96c0,.34.13.63.39.87.26.24.56.36.92.36h.24s.02.2.02.2h-6.2v-.2h.26c.35,0,.66-.12.91-.36.25-.24.38-.53.4-.87V1.8c-.01-.34-.15-.62-.4-.86s-.55-.35-.91-.35h-.26v-.2h6.2s-.02.2-.02.2h-.24c-.35,0-.66.12-.92.35-.26.23-.39.52-.39.86v5.04s6.61,0,6.61,0V1.8c-.01-.34-.15-.62-.4-.86s-.55-.35-.91-.35h-.27v-.2h6.2v.2h-.26c-.35,0-.66.12-.92.36-.26.24-.39.53-.39.87v10.81c0,.34.13.63.39.87.26.24.56.36.92.36h.26v.2h-6.2v-.2h.27Z"/>
        <path class="cls-1" d="M43.97,13.86c.35,0,.66-.12.91-.36.25-.24.38-.53.4-.87V1.76c-.04-.46-.27-.79-.67-1.02-.2-.1-.41-.16-.63-.16h-.26v-.2h7.81c.42,0,.88-.04,1.39-.12s.86-.16,1.06-.23v3.42h-.2v-.23c0-.59-.18-1.06-.54-1.42-.36-.36-.85-.55-1.46-.58h-3.43s0,5.68,0,5.68h2.69c.5-.01.92-.18,1.24-.5.33-.32.49-.71.49-1.18v-.18h.2v4.51h-.2v-.16c0-.65-.27-1.13-.82-1.44-.27-.14-.57-.22-.9-.23h-2.71s0,5.49,0,5.49h2.67c.99,0,1.82-.27,2.5-.82.67-.55,1.17-1.32,1.5-2.32h.2s-.94,3.98-.94,3.98h-10.56v-.2h.26Z"/>
        <path class="cls-1" d="M61.79,1.25h-.88s-.05,0-.06,0v11.38c.01.48.23.84.65,1.07.2.1.42.16.65.16h.27v.2h-6.2v-.2h.27c.49,0,.86-.2,1.12-.6.11-.18.17-.38.18-.61V1.82c-.01-.34-.15-.63-.4-.87-.25-.24-.55-.36-.91-.36h-.27v-.2h6.99c1.32,0,2.43.27,3.34.82.46.27.83.65,1.1,1.14.27.49.41,1.04.41,1.66s-.11,1.19-.34,1.71c-.22.52-.6.98-1.12,1.37-.52.39-1.15.62-1.89.7.79.25,1.48.82,2.08,1.72,1.47,2.25,2.56,3.59,3.26,4.02.35.21.8.32,1.33.33v.2h-2c-1.16,0-2.12-.15-2.9-.46-.78-.31-1.41-.83-1.9-1.57-.24-.38-.56-.95-.94-1.71-.38-.76-.63-1.3-.76-1.63-.37-.78-.83-1.22-1.39-1.31v-.19h.63c.61,0,1.15-.18,1.62-.53s.79-.92.95-1.72c.05-.27.08-.49.08-.64,0-1.07-.22-1.84-.67-2.31-.45-.47-1.03-.72-1.73-.73h-.61Z"/>
        <path class="cls-1" d="M72.37,13.86c.35,0,.66-.12.91-.36.25-.24.38-.53.4-.87V1.76c-.04-.46-.27-.79-.67-1.02-.2-.1-.41-.16-.63-.16h-.26v-.2h7.81c.42,0,.88-.04,1.39-.12s.86-.16,1.06-.23v3.42h-.2v-.23c0-.59-.18-1.06-.54-1.42-.36-.36-.85-.55-1.46-.58h-3.43s0,5.68,0,5.68h2.69c.5-.01.92-.18,1.24-.5.33-.32.49-.71.49-1.18v-.18h.2v4.51h-.2v-.16c0-.65-.27-1.13-.82-1.44-.27-.14-.57-.22-.9-.23h-2.71s0,5.49,0,5.49h2.67c.99,0,1.82-.27,2.5-.82.67-.55,1.17-1.32,1.5-2.32h.2s-.94,3.98-.94,3.98h-10.56v-.2h.26Z"/>
        <path class="cls-1" d="M99.5,13.86h.18v.2h-6.51v-.2h.18c.3,0,.52-.09.66-.26s.21-.34.21-.5-.03-.31-.1-.47l-1-2.4h-4.77s-1.06,2.4-1.06,2.4c-.07.17-.1.33-.1.48s.07.31.21.49c.14.18.37.26.68.26h.16v.2h-4.36v-.2h.18c.31,0,.63-.09.94-.27.31-.18.57-.46.78-.82l4.71-10.21c.64-1.29.98-2.14,1.02-2.56h.18s6.06,12.73,6.06,12.73c.2.38.46.66.77.85.31.19.63.28.96.28ZM88.71,9.41h4.08s-1.98-4.8-1.98-4.8l-2.1,4.8Z"/>
        <path class="cls-1" d="M100.77,13.86c.35,0,.66-.12.91-.36.25-.24.38-.53.4-.87V1.82c-.01-.34-.15-.63-.4-.87-.25-.24-.55-.36-.91-.36h-.26v-.2h6.2s-.02.2-.02.2h-.24c-.35,0-.66.12-.92.36-.26.24-.39.53-.39.87v11.4s2.67,0,2.67,0c.99,0,1.82-.27,2.5-.82.67-.55,1.17-1.32,1.5-2.32h.2s-.94,3.98-.94,3.98h-10.56v-.2h.26Z"/>
      </g>
      <g>
        <path class="cls-1" d="M4.66,33.43c.35,0,.66-.12.91-.36.25-.24.38-.53.4-.87v-10.87c-.04-.46-.27-.79-.67-1.02-.2-.1-.41-.16-.63-.16h-.26v-.2h7.81c.42,0,.88-.04,1.39-.12s.86-.16,1.06-.23v3.42h-.2v-.23c0-.59-.18-1.06-.54-1.42-.36-.36-.85-.55-1.46-.58h-3.43s0,5.68,0,5.68h2.69c.5-.01.92-.18,1.24-.5.33-.32.49-.71.49-1.18v-.18h.2v4.51h-.2v-.16c0-.65-.27-1.13-.82-1.44-.27-.14-.57-.22-.9-.23h-2.71s0,5.49,0,5.49h2.67c.99,0,1.82-.27,2.5-.82.67-.55,1.17-1.32,1.5-2.32h.2s-.94,3.98-.94,3.98H4.4v-.2h.26Z"/>
        <path class="cls-1" d="M35.86,33.43h.33v.2h-6.12v-.18h.31c.23,0,.43-.09.59-.26s.23-.37.2-.58l-.79-7.09-3.83,6.32c-.5.81-.76,1.53-.77,2.17h-.2s-5.24-8.43-5.24-8.43l-.8,7.03c-.03.21.04.4.2.58s.36.26.59.26h.3v.18h-4.26v-.2h.33c.38,0,.71-.11.99-.33.28-.22.45-.52.5-.9l1.69-12.51h.18s6.32,9.95,6.32,9.95l6.08-9.95h.18s1.73,12.51,1.73,12.51c.07.38.24.68.52.9.28.22.6.33.97.33Z"/>
        <path class="cls-1" d="M43.7,33.63h-6.46v-.2h.26c.35,0,.66-.12.91-.35.25-.23.38-.52.4-.86v-10.85c-.01-.34-.15-.62-.4-.86s-.55-.35-.91-.35h-.26v-.2h5.91c1.58,0,2.83.27,3.76.82.93.55,1.4,1.39,1.42,2.52-.01.57-.14,1.07-.39,1.5-.45.81-1.16,1.27-2.12,1.39,1.05.09,1.91.47,2.59,1.12.68.66,1.02,1.49,1.02,2.51,0,1.22-.51,2.16-1.54,2.82-1.03.66-2.42.99-4.19.99ZM45.06,23.55c-.01-1.83-.88-2.75-2.61-2.75h-.59s0,11.93,0,11.93h.94s.03,0,.04,0c.94,0,1.69-.26,2.24-.78.56-.52.84-1.31.84-2.36,0-.74-.16-1.35-.47-1.83-.58-.9-1.55-1.35-2.9-1.35v-.18c.71,0,1.3-.22,1.77-.65.48-.44.72-1.11.74-2.02Z"/>
        <path class="cls-1" d="M56.05,20.82h-.88s-.05,0-.06,0v11.38c.01.48.23.84.65,1.07.2.1.42.16.65.16h.27v.2h-6.2v-.2h.27c.49,0,.86-.2,1.12-.6.11-.18.17-.38.18-.61v-10.83c-.01-.34-.15-.63-.4-.87-.25-.24-.55-.36-.91-.36h-.27v-.2h6.99c1.32,0,2.43.27,3.34.82.46.27.83.65,1.1,1.14.27.49.41,1.04.41,1.66s-.11,1.19-.34,1.71c-.22.52-.6.98-1.12,1.37-.52.39-1.15.62-1.89.7.79.25,1.48.82,2.08,1.72,1.47,2.25,2.56,3.59,3.26,4.02.35.21.8.32,1.33.33v.2h-2c-1.16,0-2.12-.15-2.9-.46-.78-.31-1.41-.83-1.9-1.57-.24-.38-.56-.95-.94-1.71-.38-.76-.63-1.3-.76-1.63-.37-.78-.83-1.22-1.39-1.31v-.19h.63c.61,0,1.15-.18,1.62-.53s.79-.92.95-1.72c.05-.27.08-.49.08-.64,0-1.07-.22-1.84-.67-2.31-.45-.47-1.03-.72-1.73-.73h-.61Z"/>
        <path class="cls-1" d="M81.26,33.43h.18v.2h-6.51v-.2h.18c.3,0,.52-.09.66-.26s.21-.34.21-.5-.03-.31-.1-.47l-1-2.4h-4.77s-1.06,2.4-1.06,2.4c-.07.17-.1.33-.1.48s.07.31.21.49c.14.18.37.26.68.26h.16v.2h-4.36v-.2h.18c.31,0,.63-.09.94-.27.31-.18.57-.46.78-.82l4.71-10.21c.64-1.29.98-2.14,1.02-2.56h.18s6.06,12.73,6.06,12.73c.2.38.46.66.77.85.31.19.63.28.96.28ZM70.48,28.98h4.08s-1.98-4.8-1.98-4.8l-2.1,4.8Z"/>
        <path class="cls-1" d="M89.14,33.89c-2.62,0-4.68-.64-6.18-1.9-1.5-1.26-2.24-2.99-2.24-5.19,0-2.2.74-3.93,2.22-5.2,1.48-1.27,3.51-1.9,6.1-1.9,1.97,0,3.66.35,5.08,1.05l.04,3.36h-.16c-.69-2.39-2.28-3.59-4.75-3.59-1.6,0-2.87.56-3.8,1.67-.93,1.11-1.4,2.63-1.4,4.56s.45,3.46,1.34,4.59c.89,1.13,2.1,1.72,3.62,1.76,1.58,0,2.78-.38,3.61-1.13.84-.78,1.43-2.12,1.75-4.02h.16s.2,3.36.2,3.36c-1.1,1.74-2.96,2.61-5.59,2.61Z"/>
        <path class="cls-1" d="M96.37,33.43c.35,0,.66-.12.91-.36.25-.24.38-.53.4-.87v-10.87c-.04-.46-.27-.79-.67-1.02-.2-.1-.41-.16-.63-.16h-.26v-.2h7.81c.42,0,.88-.04,1.39-.12s.86-.16,1.06-.23v3.42h-.2v-.23c0-.59-.18-1.06-.54-1.42-.36-.36-.85-.55-1.46-.58h-3.43s0,5.68,0,5.68h2.69c.5-.01.92-.18,1.24-.5.33-.32.49-.71.49-1.18v-.18h.2v4.51h-.2v-.16c0-.65-.27-1.13-.82-1.44-.27-.14-.57-.22-.9-.23h-2.71s0,5.49,0,5.49h2.67c.99,0,1.82-.27,2.5-.82.67-.55,1.17-1.32,1.5-2.32h.2s-.94,3.98-.94,3.98h-10.56v-.2h.26Z"/>
      </g>
    </g>
  </g>
</svg>