<?xml version="1.0" encoding="UTF-8"?>
<svg id="Layer_2" data-name="Layer 2" xmlns="http://www.w3.org/2000/svg" viewBox="0 0 95.34 34.02">
  <defs>
    <style>
      .cls-1 {
        fill: #fff;
      }
    </style>
  </defs>
  <g id="Artwork">
    <g>
      <g>
        <path class="cls-1" d="M1.86,3.32V1.2h7.11v9.22c0,1.63-.43,2.85-1.3,3.66-.86.81-1.97,1.22-3.32,1.22-1.7,0-3.15-.57-4.35-1.72l1.4-1.86c.95.87,1.87,1.3,2.78,1.3.64,0,1.19-.21,1.64-.62.45-.41.68-1.03.68-1.86V3.32s-4.64,0-4.64,0Z"/>
        <path class="cls-1" d="M21.43,15.18h-2.13v-1.42c-.92,1.05-2.15,1.58-3.7,1.58-1.16,0-2.11-.31-2.87-.94-.76-.63-1.14-1.46-1.14-2.51s.4-1.83,1.21-2.35c.81-.52,1.9-.78,3.28-.78h3.03s0-.4,0-.4c0-1.41-.82-2.12-2.47-2.12-1.03,0-2.1.36-3.22,1.08l-1.05-1.4c1.35-1.03,2.88-1.54,4.6-1.54,1.31,0,2.38.32,3.21.95s1.24,1.63,1.24,2.99v6.86ZM19.09,11.22v-.9s-2.63,0-2.63,0c-1.69,0-2.53.51-2.53,1.52,0,.52.21.92.63,1.19.42.27,1,.41,1.75.41s1.4-.2,1.95-.6c.56-.4.84-.94.84-1.62Z"/>
        <path class="cls-1" d="M30.45,6.64c-1.16,0-2.03.36-2.61,1.08-.58.72-.88,1.69-.88,2.9v4.56h-2.34V4.54h2.34v2.14c.38-.67.89-1.21,1.54-1.64.65-.43,1.33-.65,2.06-.66l.02,2.26h-.13Z"/>
        <path class="cls-1" d="M33.55,13.82c-1.05-1.01-1.57-2.35-1.57-4,0-1.65.54-2.97,1.61-3.96,1.07-.99,2.35-1.48,3.84-1.48,1.48,0,2.68.6,3.58,1.8V.34h2.34v14.84h-2.34v-1.6c-.86,1.17-2.13,1.76-3.78,1.76-1.41,0-2.63-.51-3.68-1.52ZM34.33,9.91c0,1.02.34,1.85,1.02,2.49.68.64,1.48.96,2.4.96s1.7-.32,2.34-.97c.64-.65.96-1.48.96-2.49s-.32-1.86-.96-2.54c-.64-.68-1.43-1.02-2.36-1.02s-1.73.34-2.4,1.02-1,1.53-1,2.55Z"/>
        <path class="cls-1" d="M46.8,2.42c-.29-.28-.44-.61-.44-1s.15-.72.44-1C47.09.14,47.44,0,47.84,0s.75.14,1.05.42.44.61.44,1-.15.72-.44,1-.64.42-1.05.42-.75-.14-1.05-.42ZM48.99,15.18h-2.34V4.54h2.34v10.64Z"/>
        <path class="cls-1" d="M54.62,9.42v5.76h-2.34V4.54h2.34v1.94c.38-.65.9-1.17,1.56-1.54.66-.37,1.37-.56,2.14-.56,1.25,0,2.27.37,3.04,1.1.77.73,1.16,1.79,1.16,3.18v6.52h-2.34v-5.84c0-1.96-.85-2.94-2.55-2.94-.81,0-1.51.26-2.11.77-.6.51-.9,1.26-.9,2.25Z"/>
        <path class="cls-1" d="M71.86,13.82c-1.05-1.01-1.57-2.35-1.57-4s.54-2.97,1.61-3.96c1.07-.99,2.35-1.48,3.84-1.48,1.48,0,2.68.6,3.58,1.8V.34h2.34v14.84h-2.34v-1.6c-.86,1.17-2.13,1.76-3.78,1.76-1.41,0-2.63-.51-3.68-1.52ZM72.64,9.91c0,1.02.34,1.85,1.02,2.49.68.64,1.48.96,2.4.96s1.7-.32,2.34-.97c.64-.65.96-1.48.96-2.49,0-1.01-.32-1.86-.96-2.54-.64-.68-1.43-1.02-2.36-1.02s-1.73.34-2.4,1.02-1,1.53-1,2.55Z"/>
        <path class="cls-1" d="M95.34,10.84h-8.71c.05.77.42,1.4,1.11,1.87.68.47,1.46.71,2.34.71,1.39,0,2.45-.42,3.18-1.26l1.34,1.4c-1.2,1.19-2.76,1.78-4.68,1.78-1.56,0-2.89-.5-3.98-1.49-1.09-.99-1.64-2.33-1.64-4s.56-3,1.67-3.99c1.11-.99,2.43-1.48,3.94-1.48s2.8.44,3.86,1.31,1.59,2.08,1.59,3.61v1.54ZM86.62,9.08h6.37c0-.89-.29-1.58-.88-2.06-.58-.48-1.31-.72-2.16-.72s-1.63.25-2.31.75-1.02,1.18-1.02,2.03Z"/>
      </g>
      <g>
        <path class="cls-1" d="M25.03,21.99v-2.12h7.11v9.22c0,1.63-.43,2.85-1.3,3.66-.86.81-1.97,1.22-3.32,1.22-1.7,0-3.15-.57-4.35-1.72l1.4-1.86c.95.87,1.87,1.3,2.78,1.3.64,0,1.19-.21,1.64-.62.45-.41.68-1.03.68-1.86v-7.22s-4.64,0-4.64,0Z"/>
        <path class="cls-1" d="M44.6,33.86h-2.13v-1.42c-.92,1.05-2.15,1.58-3.7,1.58-1.16,0-2.11-.31-2.87-.94-.76-.63-1.14-1.46-1.14-2.51s.4-1.83,1.21-2.35c.81-.52,1.9-.78,3.28-.78h3.03s0-.4,0-.4c0-1.41-.82-2.12-2.47-2.12-1.03,0-2.1.36-3.22,1.08l-1.05-1.4c1.35-1.03,2.88-1.54,4.6-1.54,1.31,0,2.38.32,3.21.95s1.24,1.63,1.24,2.99v6.86ZM42.26,29.89v-.9s-2.63,0-2.63,0c-1.69,0-2.53.51-2.53,1.52,0,.52.21.92.63,1.19.42.27,1,.41,1.75.41s1.4-.2,1.95-.6c.56-.4.84-.94.84-1.62Z"/>
        <path class="cls-1" d="M48.69,32.5c-1.05-1.01-1.57-2.35-1.57-4s.54-2.97,1.61-3.96c1.07-.99,2.35-1.48,3.84-1.48s2.68.6,3.58,1.8v-5.84h2.34v14.84h-2.34v-1.6c-.86,1.17-2.13,1.76-3.78,1.76-1.41,0-2.63-.51-3.68-1.52ZM49.46,28.58c0,1.02.34,1.85,1.02,2.49.68.64,1.48.96,2.4.96s1.7-.32,2.34-.97c.64-.65.96-1.48.96-2.49,0-1.01-.32-1.86-.96-2.54-.64-.68-1.43-1.02-2.36-1.02s-1.73.34-2.4,1.02c-.67.68-1,1.53-1,2.55Z"/>
        <path class="cls-1" d="M72.16,29.51h-8.71c.05.77.42,1.4,1.11,1.87.68.47,1.46.71,2.34.71,1.39,0,2.45-.42,3.18-1.26l1.34,1.4c-1.2,1.19-2.76,1.78-4.68,1.78-1.56,0-2.89-.5-3.98-1.49-1.09-.99-1.64-2.33-1.64-4s.56-3,1.67-3.99c1.11-.99,2.43-1.48,3.94-1.48s2.8.44,3.86,1.31,1.59,2.08,1.59,3.61v1.54ZM63.45,27.75h6.37c0-.89-.29-1.58-.88-2.06-.58-.48-1.31-.72-2.16-.72s-1.63.25-2.31.75-1.02,1.18-1.02,2.03Z"/>
      </g>
    </g>
  </g>
</svg>