<?xml version="1.0" encoding="UTF-8"?>
<svg id="Layer_2" data-name="Layer 2" xmlns="http://www.w3.org/2000/svg" viewBox="0 0 81.92 35.02">
  <defs>
    <style>
      .cls-1 {
        fill: #fff;
        stroke: #fff;
        stroke-miterlimit: 10;
      }
    </style>
  </defs>
  <g id="Artwork">
    <g>
      <g>
        <path class="cls-1" d="M2.61,34.26H.52v-.48h.8s0-12.66,0-12.66h-.82v-.48h2.11v.48h-.78s0,12.66,0,12.66h.78v.48Z"/>
        <path class="cls-1" d="M16.8,34.28h-.59s-10.29-12.89-10.29-12.89l.02,12.89h-.58v-13.63h.6s10.29,12.84,10.29,12.84v-12.84h.56v13.63Z"/>
        <path class="cls-1" d="M29.78,21.13h-5.46s0,13.13,0,13.13h-.51v-13.13s-5.46,0-5.46,0v-.48h11.43v.48Z"/>
        <path class="cls-1" d="M41.53,34.28h-10.22s0-13.63,0-13.63h10.22v.48h-9.71s0,6,0,6h8.68v.48h-8.68s0,6.19,0,6.19h9.71v.48Z"/>
        <path class="cls-1" d="M55.04,34.28h-.59s-10.29-12.89-10.29-12.89l.02,12.89h-.58v-13.63h.6s10.29,12.84,10.29,12.84v-12.84h.56v13.63Z"/>
        <path class="cls-1" d="M68.82,31.11c0,.64-.18,1.17-.54,1.6-.36.43-.82.78-1.38,1.05-.56.27-1.17.46-1.84.58-.67.12-1.3.18-1.91.18-.45,0-.92-.03-1.41-.09s-.98-.15-1.46-.28c-.49-.13-.97-.3-1.45-.5-.48-.2-.94-.46-1.39-.77l.43-.41c.39.26.81.49,1.26.69s.91.36,1.38.49c.46.13.92.23,1.38.29s.87.09,1.26.09c.41,0,.83-.03,1.28-.08.44-.05.87-.14,1.29-.26.42-.12.81-.28,1.16-.48.36-.2.66-.44.91-.74.14-.16.25-.36.34-.6.09-.24.14-.49.14-.75,0-.44-.1-.82-.31-1.14-.2-.32-.45-.59-.74-.81-.29-.22-.6-.4-.94-.54-.33-.14-.63-.25-.88-.33-.19-.07-.38-.12-.55-.17-.18-.05-.34-.09-.5-.14l-2.94-.77c-.57-.15-1.09-.32-1.57-.52-.48-.2-.9-.43-1.25-.71-.35-.27-.62-.59-.82-.96-.19-.37-.29-.8-.29-1.3,0-.62.18-1.15.53-1.58s.8-.78,1.34-1.04c.54-.26,1.15-.45,1.8-.57.66-.12,1.3-.18,1.92-.18.92,0,1.84.12,2.76.36.92.24,1.81.69,2.67,1.34l-.37.37c-.37-.28-.78-.53-1.21-.73-.43-.2-.87-.37-1.31-.49-.44-.12-.88-.22-1.31-.28-.43-.06-.83-.09-1.19-.09-.33,0-.71.02-1.13.07-.43.05-.85.12-1.28.24-.43.11-.83.27-1.22.48-.39.2-.71.47-.97.78-.14.16-.25.36-.34.61s-.14.5-.14.75c0,.44.11.82.32,1.14.22.32.48.59.81.82.32.23.67.41,1.04.55s.71.26,1.01.35c.2.06.4.11.59.15.19.05.37.09.53.14l2.46.65c.55.15,1.08.32,1.56.52s.91.44,1.27.72c.36.28.65.61.87.99.21.37.32.81.32,1.29Z"/>
        <path class="cls-1" d="M81.42,34.28h-10.22s0-13.63,0-13.63h10.22v.48h-9.71s0,6,0,6h8.68v.48h-8.68s0,6.19,0,6.19h9.71v.48Z"/>
      </g>
      <g>
        <path class="cls-1" d="M29.27,14.38h-.59S18.38,1.49,18.38,1.49l.02,12.89h-.58V.76h.6s10.29,12.84,10.29,12.84V.76h.56v13.63Z"/>
        <path class="cls-1" d="M45.79,7.54c0,.98-.18,1.89-.55,2.75-.37.86-.87,1.61-1.52,2.25-.64.64-1.39,1.15-2.25,1.52-.86.37-1.77.56-2.73.56s-1.89-.19-2.75-.56c-.86-.37-1.61-.88-2.25-1.52-.64-.64-1.15-1.39-1.52-2.25-.37-.86-.55-1.77-.55-2.75,0-.96.18-1.87.55-2.73.37-.86.87-1.6,1.52-2.25.64-.64,1.39-1.15,2.25-1.51.86-.37,1.77-.55,2.75-.55s1.88.18,2.73.55c.86.37,1.61.87,2.25,1.51.64.64,1.15,1.39,1.52,2.25.37.86.55,1.77.55,2.73ZM45.23,7.54c0-.88-.17-1.72-.51-2.52s-.8-1.49-1.39-2.09c-.59-.6-1.28-1.08-2.06-1.43-.79-.35-1.63-.53-2.52-.53s-1.75.18-2.54.53c-.79.35-1.47.83-2.06,1.43-.59.6-1.05,1.3-1.39,2.09-.34.79-.51,1.63-.51,2.52s.17,1.73.51,2.53c.34.8.8,1.5,1.39,2.11.59.61,1.28,1.09,2.06,1.44.79.35,1.63.53,2.54.53s1.74-.18,2.52-.53c.79-.35,1.48-.83,2.06-1.44.59-.61,1.05-1.31,1.39-2.11s.51-1.64.51-2.53Z"/>
        <path class="cls-1" d="M50.26,14.36h-2.09v-.48h.8s0-12.66,0-12.66h-.82v-.48h2.11v.48h-.78s0,12.66,0,12.66h.78v.48Z"/>
        <path class="cls-1" d="M64.1,14.36h-.7s-3.98-5.85-3.98-5.85h-5.91s0,5.87,0,5.87h-.51V.76s6.68,0,6.68,0c.52,0,1.03.1,1.52.31.49.21.92.49,1.29.84.37.35.66.76.89,1.22.22.47.33.96.33,1.48,0,.37-.08.76-.23,1.16-.15.4-.38.77-.67,1.11s-.67.66-1.12.94c-.45.28-.98.48-1.57.62l4,5.92ZM63.14,4.63c0-.45-.09-.89-.28-1.3-.19-.41-.44-.78-.77-1.08-.32-.31-.7-.55-1.12-.73-.42-.18-.87-.27-1.34-.27h-6.12s0,6.8,0,6.8h5.78c.53,0,1.03-.09,1.51-.27.47-.18.88-.43,1.22-.73.35-.31.62-.67.82-1.08.2-.41.3-.86.3-1.32Z"/>
      </g>
    </g>
  </g>
</svg>