<?xml version="1.0" encoding="UTF-8"?>
<svg id="Layer_2" data-name="Layer 2" xmlns="http://www.w3.org/2000/svg" viewBox="0 0 82.69 34.02">
  <defs>
    <style>
      .cls-1 {
        fill: #fff;
      }
    </style>
  </defs>
  <g id="Artwork">
    <g>
      <g>
        <path class="cls-1" d="M6.58,14.7L2.03,2.4c-.16-.45-.32-.76-.45-.94s-.35-.31-.63-.39L.02.78l-.02-.44c.67.03,1.46.04,2.37.04s1.87-.01,2.85-.04l.04.44-.96.28c-.14.03-.23.08-.3.15s-.09.16-.09.28c0,.14.04.32.11.55.07.23.17.52.3.88l3.3,9.18,3.58-9.17c.14-.37.26-.68.34-.9s.12-.41.12-.55c0-.12-.03-.21-.1-.27s-.16-.1-.29-.14l-.95-.26-.02-.47c.74.03,1.49.04,2.24.04s1.48-.01,2.17-.04l.04.44-1.03.33c-.24.07-.42.18-.54.34s-.29.48-.49.95l-5.09,12.22-1.02.08Z"/>
        <path class="cls-1" d="M29.27,7.17c0,2.35-.67,4.25-2,5.68-1.34,1.43-3.2,2.15-5.6,2.15s-4.04-.66-5.29-1.98c-1.25-1.32-1.87-3.11-1.87-5.37,0-2.35.67-4.22,2.01-5.59S19.72,0,22.1,0s4.05.64,5.3,1.92c1.25,1.28,1.87,3.03,1.87,5.25ZM16.74,7.3c0,2.22.45,3.92,1.35,5.1.9,1.18,2.21,1.77,3.95,1.77s2.97-.54,3.78-1.61,1.22-2.75,1.22-5.05c0-2.15-.43-3.8-1.3-4.96-.86-1.16-2.2-1.73-4-1.73s-3.02.54-3.81,1.61c-.79,1.07-1.19,2.7-1.19,4.87Z"/>
        <path class="cls-1" d="M34.43,11.49c0,.41,0,.78,0,1.1s0,.62.02.89c0,.21.1.34.27.4l1.13.34.03.44c-.81-.02-1.62-.03-2.43-.03s-1.67.01-2.53.03l-.04-.44,1.25-.38c.17-.05.26-.15.28-.32,0-.27.01-.58.02-.91,0-.34,0-.71,0-1.12V3.21c0-.35,0-.66,0-.94,0-.28,0-.53-.02-.75,0-.18-.09-.29-.24-.35l-1.27-.4-.02-.44c.88.03,1.73.04,2.57.04.17,0,.38,0,.63-.02s.56-.02.93-.04c.37-.01.68-.02.93-.03s.44-.01.59-.01c1.57,0,2.74.29,3.53.88s1.18,1.44,1.18,2.56c0,1.01-.27,1.83-.81,2.46-.54.63-1.36,1.11-2.46,1.45.43.65.83,1.28,1.2,1.89.37.61.71,1.17,1.02,1.67s.6.95.86,1.34c.26.39.5.69.73.92.12.12.23.22.35.3s.24.15.36.21.26.1.4.14c.14.04.29.08.46.12l.03.45c-.49.06-.9.09-1.23.09-.28,0-.52,0-.74-.02-.21-.01-.4-.04-.57-.08s-.32-.09-.45-.16c-.13-.06-.27-.15-.4-.25-.28-.21-.56-.52-.83-.91s-.56-.85-.85-1.35c-.29-.5-.6-1.04-.92-1.61s-.65-1.12-1-1.67c-.1-.16-.19-.29-.26-.39-.07-.1-.15-.17-.24-.22s-.19-.09-.3-.11c-.11-.02-.26-.03-.44-.04l-.71-.02v3.54ZM34.43,7.18c.41.02.8.03,1.15.03,1.18,0,2.04-.25,2.59-.75s.82-1.28.82-2.35-.26-1.79-.79-2.26-1.34-.71-2.46-.71c-.19,0-.39,0-.61.02s-.45.03-.7.06v5.97Z"/>
        <path class="cls-1" d="M49.34,14.62c-.84,0-1.76.01-2.78.03l-.04-.44,1.51-.45c.17-.05.26-.15.27-.32.01-.52.02-1.18.02-1.98V1.29s-3.6,0-3.6,0l-.91,2.71-.41.07-.27-3.65.07-.08c1.67.03,3.27.04,4.81.04h2.72c1.52,0,3.13-.01,4.83-.04l.06.08-.64,3.58-.41.07-.65-2.79h-3.6s0,10.18,0,10.18c0,.8,0,1.46.02,1.98,0,.16.1.27.27.32l1.51.45.02.44c-1.05-.02-1.99-.03-2.8-.03Z"/>
        <path class="cls-1" d="M59.68.38h2.48c1.52,0,3.13-.01,4.83-.04l.06.08-.59,3.15-.41.07-.63-2.36h-4.71s0,5.61,0,5.61h.93c.71,0,1.5,0,2.37-.02.18,0,.29-.1.35-.27l.36-1.38.55-.02c-.02.95-.03,1.66-.03,2.11s.01,1.14.03,2.08l-.55.04-.37-1.4c-.05-.18-.16-.27-.32-.28-.88-.01-1.68-.02-2.4-.02h-.92s0,3.71,0,3.71c0,.75,0,1.5.02,2.23h4.9s1.24-2.59,1.24-2.59l.46-.08-.22,3.55-.07.07c-1.76-.02-3.39-.03-4.88-.03h-2.43c-.82,0-1.67.01-2.53.03l-.04-.44,1.25-.38c.17-.05.26-.15.28-.32,0-.27.01-.58.02-.91,0-.34,0-.71,0-1.12V3.21c0-.35,0-.66,0-.94,0-.28,0-.53-.02-.75,0-.18-.09-.29-.24-.35l-1.27-.4-.02-.44c.88.03,1.72.04,2.53.04Z"/>
        <path class="cls-1" d="M68.92.34c.75.03,1.64.04,2.66.04.89,0,1.82-.01,2.8-.04l.04.44-.92.26c-.14.03-.24.09-.31.15s-.09.15-.09.24c0,.17.06.36.19.58s.27.44.43.66l2.21,3.32,1.86-2.95c.1-.16.27-.41.49-.77s.34-.63.34-.81c0-.2-.14-.34-.41-.41l-.91-.24-.02-.47c.74.03,1.52.04,2.33.04s1.55-.01,2.24-.04l.04.44-1.03.33c-.24.07-.45.2-.63.37-.17.17-.39.45-.65.85l-3.05,4.56,3.97,5.9c.31.46.53.75.68.88.15.12.33.22.55.29l.94.28.02.44c-.73-.02-1.58-.03-2.54-.03-.89,0-1.87.01-2.93.03l-.04-.44.92-.24c.14-.03.24-.09.31-.15s.09-.15.09-.26c0-.16-.06-.35-.19-.57s-.27-.44-.43-.67l-2.76-4.11-2.36,3.75c-.2.31-.38.61-.55.89-.17.28-.25.51-.25.69,0,.1.03.19.09.26.06.07.16.12.3.15l.91.24.02.46c-.74-.02-1.52-.03-2.34-.03-.73,0-1.47.01-2.23.03l-.05-.44,1.03-.32c.26-.08.47-.2.63-.37.16-.16.35-.4.58-.72l3.64-5.47-3.52-5.24c-.22-.33-.4-.57-.54-.71-.14-.14-.34-.25-.61-.32l-.93-.29-.02-.44Z"/>
      </g>
      <g>
        <path class="cls-1" d="M15.68,19.4h2.48c1.52,0,3.13-.01,4.83-.04l.06.08-.59,3.15-.41.07-.63-2.36h-4.71s0,5.61,0,5.61h.93c.71,0,1.5,0,2.37-.02.18,0,.29-.1.35-.27l.36-1.38.55-.02c-.02.95-.03,1.66-.03,2.11s.01,1.14.03,2.08l-.55.04-.37-1.4c-.05-.18-.16-.27-.32-.28-.88-.01-1.68-.02-2.4-.02h-.92s0,3.71,0,3.71c0,.75,0,1.5.02,2.23h4.9s1.24-2.59,1.24-2.59l.46-.08-.22,3.55-.07.07c-1.76-.02-3.39-.03-4.88-.03h-2.43c-.82,0-1.67.01-2.53.03l-.04-.44,1.25-.38c.17-.05.26-.15.28-.32,0-.27.01-.58.02-.91,0-.34,0-.71,0-1.12v-8.27c0-.35,0-.66,0-.94,0-.28,0-.53-.02-.75,0-.18-.09-.29-.24-.35l-1.27-.4-.02-.44c.88.03,1.72.04,2.53.04Z"/>
        <path class="cls-1" d="M36.07,22.92l-.41.06-.74-2.68c-.84-.21-1.61-.32-2.3-.32-1.67,0-2.98.58-3.93,1.74-.95,1.16-1.43,2.67-1.43,4.53,0,1.99.54,3.57,1.63,4.75s2.59,1.78,4.52,1.78c1.08,0,2.22-.21,3.42-.62l.11.46c-1.34.93-2.86,1.39-4.55,1.39-2.2,0-3.97-.67-5.33-2.01-1.36-1.34-2.03-3.1-2.03-5.3,0-2.33.75-4.18,2.24-5.54,1.49-1.36,3.44-2.04,5.83-2.04,1.15,0,2.33.14,3.53.42l.07.08-.63,3.3Z"/>
        <path class="cls-1" d="M42.2,26.58v3.93c0,.8,0,1.48.02,2.02,0,.18.1.3.27.35l1.13.36.03.44c-.81-.02-1.62-.03-2.43-.03s-1.65.01-2.53.03l-.04-.44,1.25-.38c.18-.05.27-.16.28-.32.01-.55.02-1.23.02-2.03v-8.27c0-.68,0-1.24-.02-1.69,0-.18-.09-.29-.24-.35l-1.27-.4-.02-.44c.88.03,1.72.04,2.53.04s1.62-.01,2.42-.04l.05.44-1.16.36c-.17.04-.26.15-.27.32-.01.49-.02,1.06-.02,1.72v3.46s7.43,0,7.43,0v-3.46c0-.66,0-1.23-.02-1.72,0-.17-.1-.28-.27-.32l-1.13-.36-.02-.44c.83.03,1.65.04,2.46.04s1.64-.01,2.49-.04l.04.44-1.29.4c-.16.05-.24.17-.24.35-.01.45-.02,1.01-.02,1.69v8.27c0,.8,0,1.48.02,2.03,0,.16.1.26.28.32l1.23.38.02.44c-.9-.02-1.75-.03-2.57-.03s-1.6.01-2.38.03l-.04-.44,1.15-.36c.17-.05.26-.16.27-.35.01-.54.02-1.22.02-2.02v-3.93s-7.43,0-7.43,0Z"/>
        <path class="cls-1" d="M69.54,26.19c0,2.35-.67,4.25-2,5.68-1.34,1.43-3.2,2.15-5.6,2.15-2.28,0-4.04-.66-5.29-1.98-1.25-1.32-1.87-3.11-1.87-5.37s.67-4.22,2.01-5.59,3.2-2.06,5.58-2.06,4.05.64,5.3,1.92c1.25,1.28,1.87,3.03,1.87,5.25ZM57.02,26.32c0,2.22.45,3.92,1.35,5.1s2.21,1.77,3.95,1.77,2.97-.54,3.78-1.61,1.22-2.75,1.22-5.05c0-2.15-.43-3.8-1.3-4.96s-2.2-1.73-4-1.73c-1.75,0-3.02.54-3.81,1.61-.79,1.07-1.19,2.7-1.19,4.87Z"/>
      </g>
    </g>
  </g>
</svg>