<?xml version="1.0" encoding="UTF-8"?>
<svg id="Layer_2" data-name="Layer 2" xmlns="http://www.w3.org/2000/svg" viewBox="0 0 95 34.02">
  <defs>
    <style>
      .cls-1 {
        fill: #fff;
      }
    </style>
  </defs>
  <g id="Artwork">
    <g>
      <path class="cls-1" d="M26.48,15.35c-1.18.6-2.38.69-3.6.29-1.29-.41-2.41-1.29-3.34-2.64-.5-.72-.93-1.55-1.29-2.49l-.52-1.39h-3.84s-.86,2.05-.86,2.05c-.05.14-.08.26-.08.34s.02.18.06.29c.04.1.12.2.24.28.12.08.26.12.42.12h.13v.16s-3.49,0-3.49,0v-.16s.15,0,.15,0c.25,0,.5-.07.74-.22s.45-.37.61-.66l3.63-8.29c-.42-.96-.87-1.61-1.35-1.97-.4-.3-.79-.46-1.15-.46s-.7.05-1.02.16l-.03-.16C12.67.2,13.42,0,14.13,0c.89,0,1.69.35,2.39,1.04.7.68,1.31,1.67,1.84,2.97l2.36,5.83c.89,2.21,1.8,3.72,2.74,4.55.38.34.77.57,1.17.7.4.13.74.2,1.02.2s.55-.03.81-.1l.02.16ZM14.17,8.42h3.32s-1.14-3.01-1.14-3.01c-.05-.15-.13-.36-.23-.63-.1-.27-.16-.45-.2-.56l-1.76,4.2Z"/>
      <path class="cls-1" d="M34.53,1.12h-.28c-.23,0-.43.07-.59.22-.17.15-.25.33-.25.55v6.35c0,1.34-.42,2.39-1.25,3.18s-1.98,1.17-3.44,1.17c-1.72,0-3.03-.38-3.94-1.15s-1.37-1.83-1.37-3.19V1.94c0-.24-.08-.43-.25-.59-.17-.15-.37-.23-.61-.23h-.26v-.16s4.69,0,4.69,0v.16s-.26,0-.26,0c-.24,0-.44.07-.6.22-.16.15-.25.33-.26.56v6.22c0,1.15.28,2.06.85,2.74.56.67,1.34,1.01,2.33,1.01s1.77-.32,2.35-.95c.58-.64.87-1.5.88-2.58V1.91c0-.23-.08-.42-.25-.56-.17-.15-.37-.22-.61-.22h-.26v-.16s3.41,0,3.41,0v.16Z"/>
      <path class="cls-1" d="M40.07,1.68h-.7s-.04,0-.05,0v9.5c.01.4.18.7.52.9.16.09.34.13.52.13h.21v.16s-4.95,0-4.95,0v-.16s.21,0,.21,0c.39,0,.69-.17.9-.5.09-.15.14-.32.15-.51V2.15c-.01-.28-.12-.52-.32-.72-.2-.2-.44-.3-.72-.3h-.21v-.16s5.59,0,5.59,0c1.05,0,1.94.23,2.67.68.37.23.66.55.88.95.22.41.33.87.33,1.39s-.09.99-.27,1.43c-.18.43-.48.81-.9,1.14-.42.33-.92.52-1.51.59.63.21,1.18.68,1.66,1.43,1.17,1.88,2.04,3,2.61,3.36.28.17.64.27,1.06.28v.16s-1.6,0-1.6,0c-.92,0-1.69-.13-2.31-.38-.62-.26-1.12-.69-1.52-1.31-.2-.32-.45-.79-.75-1.43-.3-.64-.51-1.09-.6-1.36-.29-.65-.66-1.02-1.11-1.09v-.16s.51,0,.51,0c.49,0,.92-.15,1.3-.44.38-.29.63-.77.76-1.43.04-.23.06-.41.06-.54,0-.89-.18-1.53-.54-1.93-.36-.4-.82-.6-1.38-.61h-.49Z"/>
      <path class="cls-1" d="M53.72.73c2.01,0,3.61.53,4.79,1.6,1.18,1.06,1.78,2.51,1.78,4.33,0,1.82-.59,3.27-1.78,4.33-1.18,1.06-2.78,1.6-4.79,1.6s-3.61-.53-4.79-1.6c-1.18-1.06-1.78-2.51-1.78-4.33,0-1.21.27-2.26.81-3.15.54-.9,1.3-1.58,2.29-2.06s2.15-.72,3.47-.72ZM50.88,10.5c.7.94,1.65,1.41,2.84,1.41,1.19,0,2.14-.47,2.84-1.41.7-.94,1.05-2.22,1.05-3.84,0-1.06-.16-1.99-.47-2.79-.32-.79-.77-1.4-1.35-1.82-.59-.42-1.28-.64-2.07-.64-1.2,0-2.14.47-2.84,1.41-.7.94-1.05,2.22-1.05,3.84,0,1.62.35,2.9,1.05,3.84Z"/>
      <path class="cls-1" d="M65.73,1.68h-.7s-.04,0-.05,0v9.5c.01.4.18.7.52.9.16.09.34.13.52.13h.21v.16s-4.95,0-4.95,0v-.16s.21,0,.21,0c.39,0,.69-.17.9-.5.09-.15.14-.32.15-.51V2.15c-.01-.28-.12-.52-.32-.72-.2-.2-.44-.3-.72-.3h-.21v-.16s5.59,0,5.59,0c1.05,0,1.94.23,2.67.68.37.23.66.55.88.95.22.41.33.87.33,1.39s-.09.99-.27,1.43c-.18.43-.48.81-.9,1.14-.42.33-.92.52-1.51.59.63.21,1.18.68,1.66,1.43,1.17,1.88,2.04,3,2.61,3.36.28.17.64.27,1.06.28v.16s-1.6,0-1.6,0c-.92,0-1.69-.13-2.31-.38-.62-.26-1.12-.69-1.52-1.31-.2-.32-.45-.79-.75-1.43-.3-.64-.51-1.09-.6-1.36-.29-.65-.66-1.02-1.11-1.09v-.16s.51,0,.51,0c.49,0,.92-.15,1.3-.44.38-.29.63-.77.76-1.43.04-.23.06-.41.06-.54,0-.89-.18-1.53-.54-1.93-.36-.4-.82-.6-1.38-.61h-.49Z"/>
      <path class="cls-1" d="M84.53,12.2h.15v.16s-5.2,0-5.2,0v-.16s.15,0,.15,0c.24,0,.42-.07.53-.22.11-.15.17-.29.17-.42s-.03-.26-.08-.39l-.8-2h-3.81s-.85,2-.85,2c-.05.14-.08.27-.08.4s.06.26.17.41c.11.15.3.22.55.22h.13v.16s-3.49,0-3.49,0v-.16s.15,0,.15,0c.25,0,.5-.08.75-.23.25-.15.46-.38.62-.68l3.76-8.52c.51-1.08.78-1.79.81-2.13h.15s4.84,10.62,4.84,10.62c.16.32.37.55.62.71.25.16.51.24.77.24ZM75.91,8.49h3.26s-1.58-4.01-1.58-4.01l-1.68,4.01Z"/>
      <path class="cls-1" d="M4.92,26.5c-.2-.41-.29-.81-.29-1.18s.05-.72.15-1.04c.1-.32.26-.64.49-.95.23-.31.55-.57.96-.77.56-.29,1.24-.44,2.04-.44,1.04,0,2.03.27,2.97.8,1.23.7,2.08,1.66,2.56,2.88.27.67.41,1.4.41,2.17,0,1.81-.65,3.27-1.96,4.38-1.31,1.11-3.01,1.66-5.12,1.66s-3.81-.55-5.13-1.66C.66,31.25,0,29.79,0,27.99c0-1.35.38-2.52,1.15-3.51.77-.99,1.8-1.67,3.1-2.03l.1.15c-.55.47-.97,1.15-1.25,2.05-.28.9-.42,1.87-.42,2.92,0,1.76.41,3.16,1.22,4.2.81,1.04,1.88,1.56,3.2,1.56s2.38-.49,3.19-1.47c.81-.98,1.21-2.28,1.21-3.9,0-.98-.15-1.86-.45-2.65s-.73-1.4-1.3-1.82c-.57-.43-1.2-.64-1.89-.64-.77,0-1.4.2-1.87.6-.67.58-1.01,1.31-1.01,2.2,0,.28.04.57.11.86h-.18Z"/>
      <path class="cls-1" d="M24.46,27.06c-.37.85-1.05,1.43-2.05,1.76-.29.1-.57.15-.81.15-.77,0-1.46-.2-2.07-.6v-.16c.81.02,1.47-.24,1.97-.8.45-.48.67-1.1.67-1.87,0-1.18-.41-1.95-1.24-2.3-.26-.11-.55-.16-.86-.16h-1.09s0,9.53,0,9.53c0,.28.1.52.31.73.21.2.45.3.73.3h.21v.16s-4.95,0-4.95,0v-.16s.21,0,.21,0c.28,0,.52-.1.72-.3.2-.2.31-.44.32-.73v-9.11c-.04-.37-.23-.64-.55-.81-.15-.09-.32-.13-.49-.13h-.21v-.16s5.44,0,5.44,0c1.97,0,3.23.62,3.78,1.87.17.41.26.87.26,1.38s-.1.98-.29,1.43Z"/>
      <path class="cls-1" d="M38.08,22.55h-.28c-.23,0-.43.07-.59.22-.17.15-.25.33-.25.55v6.35c0,1.34-.42,2.39-1.25,3.18s-1.98,1.17-3.44,1.17c-1.72,0-3.03-.38-3.94-1.15s-1.37-1.83-1.37-3.19v-6.32c0-.24-.08-.43-.25-.59-.17-.15-.37-.23-.61-.23h-.26v-.16s4.69,0,4.69,0v.16s-.26,0-.26,0c-.24,0-.44.07-.6.22-.16.15-.25.33-.26.56v6.22c0,1.15.28,2.06.85,2.74.56.67,1.34,1.01,2.33,1.01s1.77-.32,2.35-.95c.58-.64.87-1.5.88-2.58v-6.44c0-.23-.08-.42-.25-.56-.17-.15-.37-.22-.61-.22h-.26v-.16s3.41,0,3.41,0v.16Z"/>
      <path class="cls-1" d="M39.33,33.62c.28,0,.52-.1.72-.3.2-.2.31-.44.32-.73v-9.03c-.01-.28-.12-.52-.32-.72-.2-.2-.44-.3-.72-.3h-.21v-.16s4.95,0,4.95,0l-.02.16h-.2c-.28,0-.53.1-.73.3-.21.2-.31.44-.31.72v9.51h2.13c.79,0,1.46-.23,2-.68.54-.46.94-1.1,1.2-1.94h.16s-.75,3.32-.75,3.32h-8.44v-.16s.21,0,.21,0Z"/>
      <path class="cls-1" d="M49.27,33.62c.28,0,.52-.1.72-.3.2-.2.31-.44.32-.73v-9.07c-.03-.38-.21-.66-.54-.85-.16-.09-.33-.13-.5-.13h-.21v-.16s6.24,0,6.24,0c.34,0,.71-.03,1.11-.1.4-.07.68-.13.85-.2v2.85s-.16,0-.16,0v-.2c0-.49-.14-.88-.43-1.18s-.68-.46-1.16-.48h-2.74s0,4.74,0,4.74h2.15c.4-.01.73-.15.99-.42.26-.27.39-.59.39-.99v-.15s.16,0,.16,0v3.76s-.16,0-.16,0v-.13c0-.54-.22-.95-.65-1.21-.22-.12-.46-.18-.72-.2h-2.17s0,4.58,0,4.58h2.13c.79,0,1.46-.23,2-.68.54-.46.94-1.1,1.2-1.94h.16s-.75,3.32-.75,3.32h-8.44v-.16s.21,0,.21,0Z"/>
      <path class="cls-1" d="M71.96,22.55c-.27,0-.51.1-.7.29s-.3.42-.31.69v8.41c0,.73.05,1.34.15,1.84l.05.24h-.15s-8.23-7.84-8.23-7.84v6.47c0,.27.1.5.29.69s.43.29.7.29h.31v.16s-4.94,0-4.94,0v-.16s.29,0,.29,0c.28,0,.52-.1.72-.29s.29-.43.29-.71v-8.46c0-.72-.05-1.31-.15-1.79l-.03-.24h.15s8.23,7.84,8.23,7.84v-6.44c-.01-.28-.11-.52-.31-.71s-.43-.29-.7-.29h-.29v-.16s4.94,0,4.94,0v.16s-.31,0-.31,0Z"/>
      <path class="cls-1" d="M79.93,34.01c-2.1,0-3.74-.53-4.94-1.59-1.2-1.05-1.79-2.5-1.79-4.33,0-1.84.59-3.28,1.78-4.34,1.18-1.06,2.81-1.59,4.87-1.59,1.57,0,2.93.29,4.06.88l.03,2.8h-.13c-.55-2-1.82-3-3.8-3-1.28,0-2.29.46-3.04,1.39-.74.93-1.12,2.2-1.12,3.8,0,1.61.36,2.88,1.07,3.83.71.95,1.68,1.43,2.89,1.47,1.26,0,2.22-.31,2.88-.94.67-.65,1.14-1.77,1.4-3.36h.13s.16,2.8.16,2.8c-.88,1.46-2.37,2.18-4.46,2.17Z"/>
      <path class="cls-1" d="M86.02,33.62c.28,0,.52-.1.72-.3.2-.2.31-.44.32-.73v-9.07c-.03-.38-.21-.66-.54-.85-.16-.09-.33-.13-.5-.13h-.21v-.16s6.24,0,6.24,0c.34,0,.71-.03,1.11-.1.4-.07.68-.13.85-.2v2.85s-.16,0-.16,0v-.2c0-.49-.14-.88-.43-1.18s-.68-.46-1.16-.48h-2.74s0,4.74,0,4.74h2.15c.4-.01.73-.15.99-.42.26-.27.39-.59.39-.99v-.15s.16,0,.16,0v3.76s-.16,0-.16,0v-.13c0-.54-.22-.95-.65-1.21-.22-.12-.46-.18-.72-.2h-2.17s0,4.58,0,4.58h2.13c.79,0,1.46-.23,2-.68.54-.46.94-1.1,1.2-1.94h.16s-.75,3.32-.75,3.32h-8.44v-.16s.21,0,.21,0Z"/>
    </g>
  </g>
</svg>