<?xml version="1.0" encoding="UTF-8"?>
<svg id="Layer_2" data-name="Layer 2" xmlns="http://www.w3.org/2000/svg" viewBox="0 0 94.52 34.02">
  <defs>
    <style>
      .cls-1 {
        fill: #fff;
      }
    </style>
  </defs>
  <g id="Artwork">
    <g>
      <g>
        <path class="cls-1" d="M0,1.35c.59-.25,1.11-.37,1.54-.37s.82.04,1.15.12c.33.08.67.22,1.02.41.35.19.67.43.97.71.58.55,1.07,1.17,1.48,1.87l3.11,5.84,4.51-7.77h.14s1.62,9.15,1.62,9.15c.25,1.41.68,2.53,1.29,3.36.61.84,1.45,1.26,2.52,1.26h.2s0,.16,0,.16c-.57.16-1.13.23-1.68.23-1.12,0-2.14-.44-3.07-1.32-.89-.84-1.5-2.07-1.82-3.69l-.76-4.53-2.93,5.07c-.4.65-.6,1.23-.61,1.73h-.14s-3.87-7.34-3.87-7.34l-.76,6.22c-.03.24.07.43.31.58.09.06.19.09.3.09h.25s0,.14,0,.14H1.53s0-.16,0-.16h.25c.27,0,.51-.08.72-.24.21-.16.34-.38.4-.66l1.06-7.42c-.47-.83-1-1.57-1.6-2.21C1.68,1.86.97,1.49.23,1.49c-.07,0-.14,0-.2.02l-.03-.16Z"/>
        <path class="cls-1" d="M22.84,13.12h.2s0,.16,0,.16h-4.73s0-.16,0-.16h.2c.27,0,.5-.1.69-.29.19-.19.29-.42.3-.69V3.02s-1.48.06-1.48.06c-.98.04-1.46.4-1.46,1.09,0,.28.1.52.29.71.19.19.46.29.8.29h.09s0,.09,0,.09c-.21.07-.38.11-.53.11-.47,0-.83-.17-1.07-.5-.18-.23-.26-.49-.26-.78,0-.46.18-.83.54-1.13s.91-.47,1.66-.52c.14-.01.57-.03,1.31-.06,1.68-.06,2.9-.17,3.66-.31l.03.16c-.45.07-.76.22-.94.45-.18.23-.28.57-.29,1.01v8.45c0,.27.11.5.3.69.19.19.42.29.69.29Z"/>
        <path class="cls-1" d="M26.88,2.37h.96c.47,0,1.33,0,2.6.02,1.84.02,3.29.52,4.36,1.49,1.07.97,1.6,2.29,1.6,3.97,0,1.68-.53,3-1.6,3.98-1.07.98-2.52,1.46-4.36,1.46h-5.65s0-.16,0-.16h.2c.26,0,.48-.09.68-.27s.3-.4.32-.66V3.08c-1.16.08-2.02.35-2.58.81-.28.22-.5.44-.66.67s-.32.5-.47.82l-.16-.06c.25-1.04.77-1.79,1.56-2.25.79-.46,1.86-.7,3.2-.71ZM32.89,11.33c.65-.86.97-2.03.97-3.5s-.32-2.63-.97-3.49-1.52-1.28-2.61-1.28h-.03s-1.93,0-1.93,0v9.55s1.93,0,1.93,0c1.11,0,1.99-.43,2.64-1.29Z"/>
        <path class="cls-1" d="M51.3,14.9c.17.1.37.19.58.28.22.09.43.15.63.19.2.04.43.05.67.05s.5-.03.76-.09l.06.16c-.58.28-1.17.42-1.76.42-1.36,0-2.74-.75-4.16-2.26l-7.38-7.83v6.36c0,.26.09.48.28.66s.41.27.67.27h.3s0,.16,0,.16h-4.71s0-.16,0-.16h.28c.27,0,.5-.09.68-.27s.28-.41.28-.68V3.44c-.51-.58-.89-.99-1.15-1.22-.26-.23-.49-.43-.69-.58s-.4-.29-.58-.39c-.44-.25-.79-.39-1.05-.44-.26-.04-.51-.06-.75-.06s-.49.05-.76.14l-.06-.16c.57-.33,1.16-.5,1.76-.5,1.31,0,2.69.78,4.16,2.33l6.96,7.39V3.49c-.01-.27-.11-.49-.3-.68-.19-.18-.41-.27-.67-.27h-.28s0-.16,0-.16h4.71s0,.16,0,.16h-.3c-.26,0-.48.09-.67.27s-.28.4-.3.66v8.85s.25.25.25.25c.06.06.16.17.29.32.13.15.25.28.35.39.1.11.24.25.4.41.16.17.31.31.45.44.14.12.31.26.5.4.19.15.37.27.54.37Z"/>
        <path class="cls-1" d="M56.5,13.12h.2s0,.16,0,.16h-4.73s0-.16,0-.16h.2c.27,0,.5-.1.69-.29.19-.19.29-.42.3-.69V3.02s-1.48.06-1.48.06c-.98.04-1.46.4-1.46,1.09,0,.28.1.52.29.71.19.19.46.29.8.29h.09s0,.09,0,.09c-.21.07-.38.11-.53.11-.47,0-.83-.17-1.07-.5-.18-.23-.26-.49-.26-.78,0-.46.18-.83.54-1.13s.91-.47,1.66-.52c.14-.01.57-.03,1.31-.06,1.68-.06,2.9-.17,3.66-.31l.03.16c-.45.07-.76.22-.94.45-.18.23-.28.57-.29,1.01v8.45c0,.27.11.5.3.69.19.19.42.29.69.29Z"/>
        <path class="cls-1" d="M71.86,16.36c-.26,0-.51-.02-.76-.06-1.01-.16-1.86-.54-2.57-1.14-.71-.61-1.21-1.36-1.52-2.26-.98.4-2.03.61-3.16.61-1.87,0-3.4-.53-4.59-1.59-1.19-1.06-1.79-2.42-1.79-4.08,0-1.11.27-2.1.82-2.96s1.31-1.53,2.3-2,2.11-.71,3.38-.71c.83,0,1.63.08,2.41.24.78.16,1.41.36,1.88.6l.03,2.68h-.12c-.25-.94-.73-1.66-1.44-2.14s-1.56-.72-2.56-.72c-1.22,0-2.22.47-3,1.41-.77.94-1.16,2.15-1.16,3.63s.38,2.68,1.14,3.6c.76.92,1.73,1.39,2.93,1.39.64,0,1.2-.14,1.67-.42.47-.28.79-.65.96-1.12v-2.37c0-.23-.07-.4-.2-.53-.13-.12-.33-.19-.58-.19h-.25s0-.16,0-.16h4.37s0,.16,0,.16h-.23c-.26,0-.46.06-.59.19-.14.12-.2.3-.19.51v2.47c0,.68.14,1.32.39,1.91.55,1.27,1.46,2.05,2.74,2.37.34.08.7.12,1.07.12s.74-.04,1.13-.12l.03.16c-.89.35-1.73.53-2.52.53Z"/>
        <path class="cls-1" d="M78.34,13.12c.27,0,.5-.09.7-.28.2-.19.3-.42.31-.68v-3.97s-4.9,0-4.9,0v4c0,1.24-.32,2.24-.95,2.97-.5.58-1.21.87-2.15.87-.3,0-.63-.04-.98-.11l-.03-.16c.77-.32,1.26-.8,1.48-1.43.2-.54.3-1.26.3-2.15V3.5c-.01-.27-.11-.5-.3-.68-.19-.19-.42-.28-.69-.28h-.2s0-.16,0-.16h4.73s0,.16,0,.16h-.2c-.37,0-.65.16-.84.47-.09.15-.15.31-.16.5v4.01s4.9,0,4.9,0v-3.73c0-1.21.38-2.18,1.14-2.89C81.09.3,81.85,0,82.76,0c.21,0,.43.02.65.05l.03.16c-.76.27-1.25.75-1.48,1.43-.19.56-.28,1.28-.3,2.15v8.36c.01.37.18.65.5.84.15.09.33.14.51.14h.19s0,.16,0,.16h-4.71s0-.16,0-.16h.19Z"/>
        <path class="cls-1" d="M83.46,6.01c-.51-.49-.76-1.01-.76-1.57,0-.44.14-.81.42-1.14.53-.62,1.27-.93,2.23-.93h7.33c.46-.01.86-.05,1.2-.12.34-.07.56-.12.65-.16v2.71h-.15s0-.19,0-.19c0-.47-.14-.85-.42-1.14-.28-.29-.66-.44-1.14-.45h-2.1v9.13c.02.37.19.65.51.84.15.08.31.12.48.12h.2s0,.16,0,.16h-4.73s0-.16,0-.16h.2c.27,0,.5-.09.69-.28.19-.19.29-.41.3-.67V3.02s-3.03,0-3.03,0c-.43,0-.8.08-1.12.23-.65.31-.98.8-.98,1.46,0,.39.12.8.37,1.21l-.15.08Z"/>
      </g>
      <g>
        <path class="cls-1" d="M8.92,28.04c-.41.66-.62,1.34-.62,2.04,0,.76.28,1.45.83,2.07.3.35.68.63,1.14.82.46.2.97.3,1.52.3s1.04-.1,1.48-.31c.87-.43,1.31-1.12,1.31-2.09,0-.36-.12-.75-.37-1.15-.24-.4-.61-.77-1.1-1.09l-2.65-1.77c-1.03-.64-1.54-1.47-1.54-2.49,0-.1,0-.21.02-.31.06-.8.38-1.45.96-1.95.58-.5,1.35-.75,2.31-.75.59,0,1.31.05,2.15.16h.96s-.2,2.29-.2,2.29h-.14c-.01-.54-.22-.97-.62-1.3-.4-.33-.94-.49-1.6-.49-.81,0-1.4.24-1.76.73-.18.25-.27.52-.27.81s.09.54.27.74c.18.2.46.42.84.66l2.91,1.9c.59.38,1.05.83,1.39,1.35.39.61.59,1.24.59,1.88,0,.42-.09.85-.26,1.32s-.45.89-.84,1.28c-.39.39-.89.72-1.5.96-.61.25-1.29.37-2.03.37s-1.41-.13-2.02-.39c-1.11-.47-1.82-1.28-2.12-2.44-.06-.25-.09-.51-.09-.78,0-.87.31-1.7.92-2.47l.14.11Z"/>
        <path class="cls-1" d="M24,21.35c1.92,0,3.44.51,4.57,1.53s1.7,2.4,1.7,4.14c0,1.74-.57,3.12-1.7,4.14-1.13,1.02-2.66,1.52-4.57,1.52s-3.44-.51-4.58-1.52-1.7-2.4-1.7-4.14c0-1.15.26-2.16.77-3.01.51-.86,1.24-1.51,2.19-1.97.94-.46,2.05-.68,3.31-.68ZM21.29,30.68c.67.9,1.57,1.35,2.72,1.35s2.05-.45,2.72-1.35,1-2.12,1-3.67c0-1.02-.15-1.9-.45-2.66-.3-.76-.73-1.34-1.29-1.74-.56-.4-1.22-.61-1.98-.61-1.14,0-2.05.45-2.72,1.35-.67.9-1,2.12-1,3.66,0,1.55.33,2.77,1,3.67Z"/>
        <path class="cls-1" d="M31.38,32.3c.27,0,.5-.1.69-.29.19-.19.29-.42.3-.69v-8.62c-.01-.27-.11-.5-.3-.69-.19-.19-.42-.29-.69-.29h-.2s0-.16,0-.16h4.73s-.02.16-.02.16h-.19c-.27,0-.5.1-.7.29-.2.19-.3.42-.3.69v9.09s2.04,0,2.04,0c.76,0,1.39-.22,1.91-.65.51-.44.89-1.05,1.14-1.85h.15s-.71,3.17-.71,3.17h-8.06s0-.16,0-.16h.2Z"/>
        <path class="cls-1" d="M40.89,31.01c0-.75.16-1.39.48-1.91h.14c0,.08-.02.17-.02.25,0,.72.26,1.34.77,1.88.51.53,1.22.8,2.11.8.69,0,1.24-.17,1.63-.5.39-.33.58-.75.58-1.26,0-.61-.41-1.15-1.24-1.6l-2.71-1.79c-.54-.31-.93-.69-1.16-1.13-.23-.44-.35-.89-.35-1.35,0-.98.31-1.73.93-2.26.62-.53,1.41-.79,2.37-.79.57,0,1.28.05,2.12.16h.98s-.2,2.29-.2,2.29h-.16c0-.54-.2-.97-.6-1.3s-.93-.49-1.59-.49c-.81,0-1.4.25-1.76.75-.19.24-.28.51-.28.81,0,.5.36.96,1.09,1.39l2.97,1.93c.93.54,1.4,1.33,1.4,2.38,0,1.11-.38,1.96-1.13,2.54-.75.59-1.75.88-3,.88-.71,0-1.36-.09-1.95-.26-.6-.17-1.04-.4-1.32-.69-.07-.2-.11-.44-.11-.72Z"/>
        <path class="cls-1" d="M55.47,22.2v9.13c0,.27.11.5.3.68.19.19.42.28.69.28h.19s.02.16.02.16h-4.73s0-.16,0-.16h.2c.26,0,.49-.09.68-.28.19-.19.3-.41.32-.67v-9.15s-2.1,0-2.1,0c-.48.01-.86.16-1.14.45-.28.29-.42.67-.42,1.14v.19h-.15s0-2.71,0-2.71c.15.06.41.12.79.19s.73.09,1.05.09h6.27c.51-.01.92-.05,1.25-.12.32-.07.52-.12.59-.16v2.71h-.16s0-.19,0-.19c0-.47-.14-.85-.42-1.14s-.66-.44-1.14-.45h-2.08Z"/>
        <path class="cls-1" d="M60.33,32.3c.27,0,.5-.1.69-.29.19-.19.29-.42.3-.69v-8.64c-.01-.27-.11-.5-.3-.68-.19-.19-.42-.28-.69-.28h-.2s0-.16,0-.16h4.73s-.02.16-.02.16h-.19c-.27,0-.5.09-.7.28-.2.19-.3.42-.3.68v8.64c0,.27.1.5.3.69.2.19.43.29.7.29h.19s.02.16.02.16h-4.73s0-.16,0-.16h.2Z"/>
        <path class="cls-1" d="M72.26,32.67c-2,0-3.57-.51-4.71-1.52s-1.71-2.39-1.71-4.14.57-3.14,1.7-4.15c1.13-1.01,2.68-1.52,4.65-1.52,1.5,0,2.8.28,3.87.84l.03,2.68h-.12c-.53-1.91-1.74-2.86-3.63-2.86-1.22,0-2.19.44-2.9,1.33-.71.89-1.07,2.1-1.07,3.63s.34,2.75,1.02,3.66c.68.9,1.6,1.37,2.76,1.4,1.2,0,2.12-.3,2.75-.9.64-.62,1.09-1.69,1.34-3.21h.12s.16,2.68.16,2.68c-.84,1.39-2.26,2.08-4.26,2.08Z"/>
        <path class="cls-1" d="M78.08,32.3c.27,0,.5-.1.69-.29.19-.19.29-.42.3-.69v-8.67c-.03-.36-.2-.63-.51-.81-.15-.08-.32-.12-.48-.12h-.2s0-.16,0-.16h5.96c.32,0,.67-.03,1.06-.09.38-.06.65-.12.81-.19v2.72h-.16s0-.19,0-.19c0-.47-.14-.84-.41-1.13s-.65-.44-1.11-.46h-2.62v4.53s2.06,0,2.06,0c.38-.01.7-.14.95-.4s.37-.57.37-.94v-.14h.16s0,3.59,0,3.59h-.16s0-.12,0-.12c0-.52-.21-.9-.62-1.15-.21-.11-.44-.18-.68-.19h-2.07v4.37s2.04,0,2.04,0c.76,0,1.39-.22,1.91-.65.51-.44.89-1.05,1.14-1.85h.15s-.71,3.17-.71,3.17h-8.06s0-.16,0-.16h.2Z"/>
      </g>
    </g>
  </g>
</svg>