<?xml version="1.0" encoding="UTF-8"?>
<svg id="Layer_2" data-name="Layer 2" xmlns="http://www.w3.org/2000/svg" xmlns:xlink="http://www.w3.org/1999/xlink" viewBox="0 0 90.06 34.02">
  <defs>
    <style>
      .cls-1 {
        fill: #fff;
      }

      .cls-2 {
        filter: url(#drop-shadow-1);
      }
    </style>
    <filter id="drop-shadow-1" x="0" y="0" width="90.06" height="34.02" filterUnits="userSpaceOnUse">
      <feOffset dx="0" dy="0"/>
      <feGaussianBlur result="blur" stdDeviation=".5"/>
      <feFlood flood-color="#000" flood-opacity=".5"/>
      <feComposite in2="blur" operator="in"/>
      <feComposite in="SourceGraphic"/>
    </filter>
  </defs>
  <g id="Artwork">
    <g class="cls-2">
      <path class="cls-1" d="M5.31,4.79c-.21-.45-.32-.87-.32-1.28s.05-.78.16-1.13.28-.69.53-1.02c.25-.33.59-.61,1.04-.84.61-.32,1.34-.48,2.2-.48,1.13,0,2.19.29,3.2.86,1.32.75,2.25,1.79,2.76,3.11.29.73.44,1.51.44,2.34,0,1.96-.71,3.54-2.12,4.73-1.41,1.2-3.26,1.8-5.52,1.8s-4.12-.6-5.54-1.8c-1.43-1.2-2.14-2.77-2.14-4.72,0-1.45.41-2.72,1.24-3.79.83-1.07,1.94-1.8,3.35-2.19l.11.16c-.6.5-1.05,1.24-1.36,2.22-.31.97-.46,2.02-.46,3.15,0,1.9.44,3.41,1.32,4.54.88,1.13,2.03,1.69,3.46,1.69s2.58-.53,3.45-1.59,1.31-2.47,1.31-4.21c0-1.06-.16-2.01-.48-2.86s-.79-1.51-1.4-1.97c-.61-.46-1.29-.69-2.04-.69-.83,0-1.51.22-2.02.65-.73.62-1.09,1.41-1.09,2.38,0,.31.04.62.12.93h-.19Z"/>
      <path class="cls-1" d="M26.41,5.38c-.4.92-1.14,1.55-2.22,1.9-.32.11-.61.16-.88.16-.83,0-1.58-.22-2.23-.65v-.18c.88.02,1.59-.26,2.13-.86.48-.52.72-1.19.72-2.02,0-1.28-.45-2.11-1.34-2.48-.28-.12-.59-.18-.93-.18h-1.18v10.29c0,.31.11.57.34.78.22.22.49.33.79.33h.23v.18h-5.35v-.18h.23c.31,0,.57-.11.78-.33.22-.22.33-.48.34-.78V1.53c-.05-.4-.25-.69-.6-.88-.16-.09-.34-.14-.53-.14h-.23v-.18h5.88c2.12,0,3.48.67,4.08,2.02.19.45.28.94.28,1.49s-.11,1.06-.32,1.54Z"/>
      <path class="cls-1" d="M41.12.51h-.3c-.25,0-.46.08-.64.24-.18.16-.27.35-.27.59v6.86c0,1.44-.45,2.59-1.36,3.43-.9.84-2.14,1.27-3.71,1.27-1.85,0-3.27-.41-4.26-1.24s-1.48-1.97-1.48-3.44V1.39c0-.26-.09-.47-.27-.63-.18-.16-.4-.25-.66-.25h-.28v-.18h5.07v.18h-.28c-.26,0-.48.08-.65.24-.18.16-.27.36-.28.61v6.72c0,1.24.31,2.23.92,2.96.61.73,1.45,1.09,2.52,1.09s1.91-.34,2.53-1.03c.62-.69.94-1.62.95-2.79V1.36c0-.25-.09-.45-.27-.61s-.4-.24-.66-.24h-.28v-.18h3.68v.18Z"/>
      <path class="cls-1" d="M42.48,12.48c.31,0,.57-.11.78-.33.22-.22.33-.48.34-.78V1.62c-.01-.3-.13-.57-.34-.78-.22-.22-.48-.33-.78-.33h-.23v-.18h5.35l-.02.18h-.21c-.31,0-.57.11-.79.33-.22.22-.34.48-.34.78v10.28h2.31c.86,0,1.57-.25,2.16-.74.58-.49,1.01-1.19,1.29-2.09h.18l-.81,3.59h-9.12v-.18h.23Z"/>
      <path class="cls-1" d="M53.21,12.48c.31,0,.57-.11.78-.33.22-.22.33-.48.34-.78V1.57c-.04-.41-.23-.72-.58-.91-.18-.09-.36-.14-.55-.14h-.23v-.18h6.74c.36,0,.76-.04,1.2-.11.43-.07.74-.14.91-.21v3.08h-.18v-.21c0-.53-.16-.95-.47-1.28s-.73-.49-1.26-.52h-2.96v5.12h2.32c.43-.01.79-.16,1.07-.45.28-.29.42-.64.42-1.06v-.16h.18v4.07h-.18v-.14c0-.59-.23-1.02-.7-1.3-.23-.13-.49-.2-.77-.21h-2.34v4.95h2.31c.86,0,1.57-.25,2.16-.74.58-.49,1.01-1.19,1.29-2.09h.18l-.81,3.59h-9.12v-.18h.23Z"/>
      <path class="cls-1" d="M77.73.51c-.29,0-.55.1-.76.31s-.32.46-.33.75v9.08c0,.79.05,1.45.16,1.99l.05.26h-.16l-8.89-8.46v6.99c0,.29.11.54.32.75s.46.31.76.31h.33v.18h-5.33v-.18h.32c.31,0,.56-.1.77-.31s.32-.46.32-.77V2.27c0-.77-.05-1.42-.16-1.94l-.04-.26h.16l8.89,8.46V1.58c-.01-.31-.12-.56-.33-.77s-.46-.31-.76-.31h-.32v-.18h5.33v.18h-.33Z"/>
      <path class="cls-1" d="M85.77,1.06v10.33c.01.3.13.56.34.77s.48.32.78.32h.21l.02.18h-5.35v-.18h.23c.29,0,.55-.11.76-.32s.34-.46.36-.76V1.06h-2.38c-.54.01-.97.18-1.29.51-.32.33-.48.76-.48,1.29v.21h-.18V0c.16.07.46.14.89.21.43.07.82.11,1.19.11h7.09c.57-.01,1.04-.06,1.41-.14.36-.08.59-.14.67-.18v3.06h-.18v-.21c0-.53-.16-.96-.48-1.29-.32-.33-.75-.5-1.29-.51h-2.36Z"/>
      <path class="cls-1" d="M7.65,25.9c-.21-.45-.32-.87-.32-1.28s.05-.78.16-1.13.28-.69.53-1.02c.25-.33.59-.61,1.04-.84.61-.32,1.34-.48,2.2-.48,1.13,0,2.19.29,3.2.86,1.32.75,2.25,1.79,2.76,3.11.29.73.44,1.51.44,2.34,0,1.96-.71,3.54-2.12,4.73-1.41,1.2-3.26,1.8-5.52,1.8s-4.12-.6-5.54-1.8c-1.43-1.2-2.14-2.77-2.14-4.72,0-1.45.41-2.72,1.24-3.79.83-1.07,1.94-1.8,3.35-2.19l.11.16c-.6.5-1.05,1.24-1.36,2.22-.31.97-.46,2.02-.46,3.15,0,1.9.44,3.41,1.32,4.54.88,1.13,2.03,1.69,3.46,1.69s2.58-.53,3.45-1.59,1.31-2.47,1.31-4.21c0-1.06-.16-2.01-.48-2.86s-.79-1.51-1.4-1.97c-.61-.46-1.29-.69-2.04-.69-.83,0-1.51.22-2.02.65-.73.62-1.09,1.41-1.09,2.38,0,.31.04.62.12.93h-.19Z"/>
      <path class="cls-1" d="M30.08,23.1c1.21,1.1,1.81,2.6,1.81,4.5s-.61,3.4-1.81,4.5c-1.21,1.1-2.85,1.65-4.93,1.65h-6.39v-.18h.23c.31,0,.57-.11.78-.33.22-.22.33-.48.34-.78v-9.85c-.04-.28-.16-.52-.37-.71-.21-.19-.46-.29-.76-.29h-.23v-.18h6.39c2.08,0,3.72.55,4.93,1.65ZM24.93,33.03c.84,0,1.57-.22,2.19-.66.61-.44,1.09-1.07,1.42-1.88.33-.82.49-1.77.49-2.88,0-1.67-.37-2.99-1.1-3.96s-1.73-1.46-3-1.46h-2.17v10.84h2.17Z"/>
      <path class="cls-1" d="M44.85,21.63h-.25c-.35,0-.69.1-1,.3-.32.2-.57.44-.76.72l-3.47,5.52v4.31c0,.31.11.57.34.78.22.22.49.33.79.33h.21l.02.18h-5.35v-.18h.23c.3,0,.57-.11.78-.32.22-.21.33-.47.34-.77v-4.35l-3.36-5.53c-.18-.28-.43-.52-.75-.71-.32-.19-.65-.29-.99-.29h-.25v-.18h5.82v.18h-.23c-.26,0-.46.12-.6.35-.07.13-.11.26-.11.38s.03.24.09.36l2.52,4.57,2.6-4.57c.07-.12.11-.24.11-.36s-.04-.24-.12-.36c-.14-.25-.34-.37-.6-.37h-.21v-.18h4.19v.18Z"/>
      <path class="cls-1" d="M45.15,32.13c0-.84.18-1.57.54-2.17h.16c-.01.09-.02.19-.02.28,0,.81.29,1.52.87,2.12.58.61,1.37.91,2.38.91.79,0,1.4-.19,1.84-.56.44-.38.66-.85.66-1.43,0-.69-.47-1.3-1.41-1.81l-3.06-2.02c-.61-.35-1.05-.78-1.31-1.28s-.4-1.01-.4-1.52c0-1.1.35-1.95,1.05-2.55.7-.6,1.59-.9,2.68-.9.65,0,1.44.06,2.39.18h1.11l-.23,2.59h-.18c0-.61-.23-1.1-.68-1.47s-1.05-.55-1.8-.55c-.92,0-1.58.28-1.99.84-.21.27-.32.58-.32.92,0,.56.41,1.09,1.23,1.57l3.36,2.18c1.06.61,1.58,1.51,1.58,2.69,0,1.26-.43,2.21-1.28,2.88s-1.98.99-3.39.99c-.8,0-1.53-.1-2.21-.29-.68-.19-1.17-.45-1.49-.78-.08-.22-.12-.49-.12-.81Z"/>
      <path class="cls-1" d="M55.32,32.13c0-.84.18-1.57.54-2.17h.16c-.01.09-.02.19-.02.28,0,.81.29,1.52.87,2.12.58.61,1.37.91,2.38.91.79,0,1.4-.19,1.84-.56.44-.38.66-.85.66-1.43,0-.69-.47-1.3-1.41-1.81l-3.06-2.02c-.61-.35-1.05-.78-1.31-1.28s-.4-1.01-.4-1.52c0-1.1.35-1.95,1.05-2.55.7-.6,1.59-.9,2.68-.9.65,0,1.44.06,2.39.18h1.11l-.23,2.59h-.18c0-.61-.23-1.1-.68-1.47s-1.05-.55-1.8-.55c-.92,0-1.58.28-1.99.84-.21.27-.32.58-.32.92,0,.56.41,1.09,1.23,1.57l3.36,2.18c1.06.61,1.58,1.51,1.58,2.69,0,1.26-.43,2.21-1.28,2.88s-1.98.99-3.39.99c-.8,0-1.53-.1-2.21-.29-.68-.19-1.17-.45-1.49-.78-.08-.22-.12-.49-.12-.81Z"/>
      <path class="cls-1" d="M65.47,33.59c.31,0,.57-.11.78-.33.22-.22.33-.48.34-.78v-9.8c-.04-.41-.23-.72-.58-.91-.18-.09-.36-.14-.55-.14h-.23v-.18h6.74c.36,0,.76-.04,1.2-.11.43-.07.74-.14.91-.21v3.08h-.18v-.21c0-.53-.16-.95-.47-1.28s-.73-.49-1.26-.52h-2.96v5.12h2.32c.43-.01.79-.16,1.07-.45.28-.29.42-.64.42-1.06v-.16h.18v4.07h-.18v-.14c0-.59-.23-1.02-.7-1.3-.23-.13-.49-.2-.77-.21h-2.34v4.95h2.31c.86,0,1.57-.25,2.16-.74.58-.49,1.01-1.19,1.29-2.09h.18l-.81,3.59h-9.12v-.18h.23Z"/>
      <path class="cls-1" d="M88.54,21.63h-.25c-.35,0-.69.1-1,.3-.32.2-.57.44-.76.72l-3.47,5.52v4.31c0,.31.11.57.34.78.22.22.49.33.79.33h.21l.02.18h-5.35v-.18h.23c.3,0,.57-.11.78-.32.22-.21.33-.47.34-.77v-4.35l-3.36-5.53c-.18-.28-.43-.52-.75-.71-.32-.19-.65-.29-.99-.29h-.25v-.18h5.82v.18h-.23c-.26,0-.46.12-.6.35-.07.13-.11.26-.11.38s.03.24.09.36l2.52,4.57,2.6-4.57c.07-.12.11-.24.11-.36s-.04-.24-.12-.36c-.14-.25-.34-.37-.6-.37h-.21v-.18h4.19v.18Z"/>
    </g>
  </g>
</svg>