<?xml version="1.0" encoding="UTF-8"?>
<svg id="Layer_2" data-name="Layer 2" xmlns="http://www.w3.org/2000/svg" viewBox="0 0 96.43 34.02">
  <defs>
    <style>
      .cls-1 {
        fill: #fff;
      }
    </style>
  </defs>
  <g id="Artwork">
    <g>
      <g>
        <path class="cls-1" d="M29.26,17.73c-1.37.69-2.75.8-4.16.34-1.49-.48-2.78-1.49-3.86-3.05-.58-.83-1.07-1.79-1.49-2.88l-.6-1.6h-4.44s-1,2.37-1,2.37c-.06.16-.09.3-.09.4s.02.21.07.33.14.23.28.32c.14.09.3.14.48.14h.15v.19h-4.03v-.19h.17c.29,0,.57-.08.86-.25.28-.17.52-.42.71-.76l4.2-9.58c-.49-1.1-1.01-1.86-1.56-2.28-.47-.35-.91-.53-1.33-.53s-.81.06-1.18.19l-.04-.19C13.29.23,14.16,0,14.99,0c1.03,0,1.95.4,2.77,1.2.8.79,1.51,1.93,2.13,3.43l2.73,6.74c1.03,2.55,2.08,4.3,3.16,5.25.44.39.89.66,1.36.81.46.15.86.23,1.18.23s.63-.04.93-.11l.02.19ZM15.02,9.73h3.84s-1.32-3.48-1.32-3.48c-.06-.18-.15-.42-.26-.73s-.19-.52-.23-.65l-2.03,4.86Z"/>
        <path class="cls-1" d="M36.45,1.3h-.17c-.29,0-.58.09-.87.26s-.53.44-.72.79l-4.46,9.85c-.58,1.24-.88,2.06-.92,2.47h-.17s-5.7-12.29-5.7-12.29c-.19-.35-.43-.62-.72-.8-.29-.18-.58-.27-.89-.27h-.15v-.19h5.99v.19h-.15c-.28,0-.48.08-.61.25s-.2.33-.2.48.03.3.08.45l3.2,7.78,3.31-7.78c.06-.16.09-.32.09-.46s-.07-.3-.2-.47c-.13-.17-.33-.25-.61-.25h-.17v-.19h4.03v.19Z"/>
        <path class="cls-1" d="M36.92,14.1c.33,0,.61-.12.84-.35.23-.23.35-.51.37-.84V2.43c-.04-.44-.24-.77-.62-.98-.19-.1-.38-.15-.58-.15h-.24v-.19h7.21c.39,0,.82-.04,1.28-.11.46-.08.79-.15.98-.23v3.29h-.19v-.23c0-.56-.17-1.02-.5-1.36-.33-.35-.78-.53-1.35-.56h-3.16s0,5.48,0,5.48h2.48c.46-.01.85-.17,1.15-.48s.45-.69.45-1.14v-.17h.19v4.35h-.19v-.15c0-.63-.25-1.09-.75-1.39-.25-.14-.53-.21-.83-.23h-2.5s0,5.29,0,5.29h2.47c.92,0,1.68-.26,2.31-.79s1.08-1.27,1.38-2.24h.19s-.87,3.84-.87,3.84h-9.75v-.19h.24Z"/>
        <path class="cls-1" d="M63.14,1.3c-.31,0-.58.11-.81.33s-.35.49-.36.8v9.71c0,.84.06,1.55.17,2.13l.06.28h-.17s-9.51-9.06-9.51-9.06v7.47c0,.31.11.58.34.8.23.22.5.33.81.33h.36v.19h-5.7v-.19h.34c.33,0,.6-.11.83-.33s.34-.49.34-.82V3.18c0-.83-.06-1.52-.17-2.07l-.04-.28h.17s9.51,9.06,9.51,9.06V2.45c-.01-.33-.13-.6-.36-.82-.23-.22-.5-.33-.81-.33h-.34v-.19h5.7v.19h-.36Z"/>
        <path class="cls-1" d="M64.78,14.1c.33,0,.61-.12.84-.35.23-.23.35-.51.37-.84V2.47c-.01-.33-.13-.6-.37-.83-.23-.23-.51-.34-.84-.34h-.24v-.19h5.72s-.02.19-.02.19h-.23c-.33,0-.61.11-.85.34-.24.23-.36.5-.36.83v10.45c0,.33.12.61.36.84.24.23.52.35.85.35h.23s.02.19.02.19h-5.72v-.19h.24Z"/>
        <path class="cls-1" d="M77,1.94h-.81s-.04,0-.06,0v10.98c.01.46.21.81.6,1.04.19.1.39.15.6.15h.24v.19h-5.72v-.19h.24c.45,0,.8-.19,1.04-.58.1-.18.16-.37.17-.58V2.48c-.01-.33-.14-.61-.37-.84s-.51-.35-.84-.35h-.24v-.19h6.46c1.22,0,2.25.26,3.09.79.43.26.77.63,1.02,1.1.25.47.38,1,.38,1.6s-.1,1.15-.31,1.65-.55.94-1.03,1.32-1.06.6-1.74.68c.73.24,1.37.79,1.92,1.66,1.35,2.17,2.36,3.46,3.01,3.88.33.2.73.31,1.22.32v.19h-1.84c-1.07,0-1.96-.15-2.67-.44-.72-.29-1.3-.8-1.75-1.52-.23-.36-.52-.91-.87-1.65s-.58-1.26-.7-1.57c-.34-.75-.77-1.17-1.28-1.26v-.19h.58c.57,0,1.06-.17,1.5-.51.43-.34.73-.89.88-1.66.05-.26.08-.47.08-.62,0-1.03-.21-1.77-.62-2.23-.41-.46-.95-.69-1.6-.71h-.57Z"/>
      </g>
      <g>
        <path class="cls-1" d="M.92,24.85c-.61-.59-.92-1.22-.92-1.9,0-.53.17-.98.51-1.37.64-.75,1.54-1.13,2.69-1.13h8.87c.55-.01,1.04-.06,1.45-.14s.68-.15.79-.2v3.28h-.19v-.23c0-.57-.17-1.02-.51-1.37s-.8-.53-1.38-.55h-2.54s0,11.05,0,11.05c.03.45.23.79.62,1.02.18.1.37.15.58.15h.24v.19h-5.72v-.19h.24c.33,0,.61-.11.84-.34s.35-.5.37-.81v-11.07h-3.67c-.51,0-.97.09-1.36.28-.79.38-1.19.97-1.19,1.77,0,.48.15.97.45,1.47l-.19.09Z"/>
        <path class="cls-1" d="M20.52,21.29h-.81s-.04,0-.06,0v10.98c.01.46.21.81.6,1.04.19.1.39.15.6.15h.24v.19h-5.72v-.19h.24c.45,0,.8-.19,1.04-.58.1-.18.16-.37.17-.58v-10.45c-.01-.33-.14-.61-.37-.84s-.51-.35-.84-.35h-.24v-.19h6.46c1.22,0,2.25.26,3.09.79.43.26.77.63,1.02,1.1.25.47.38,1,.38,1.6s-.1,1.15-.31,1.65-.55.94-1.03,1.32-1.06.6-1.74.68c.73.24,1.37.79,1.92,1.66,1.35,2.17,2.36,3.46,3.01,3.88.33.2.73.31,1.22.32v.19h-1.84c-1.07,0-1.96-.15-2.67-.44-.72-.29-1.3-.8-1.75-1.52-.23-.36-.52-.91-.87-1.65-.35-.73-.58-1.26-.7-1.57-.34-.75-.77-1.17-1.28-1.26v-.19h.58c.57,0,1.06-.17,1.5-.51.43-.34.73-.89.88-1.66.05-.26.08-.47.08-.62,0-1.03-.21-1.77-.62-2.23-.41-.46-.95-.69-1.6-.71h-.57Z"/>
        <path class="cls-1" d="M29.39,33.45c.33,0,.61-.12.84-.35.23-.23.35-.51.37-.84v-10.45c-.01-.33-.13-.6-.37-.83-.23-.23-.51-.34-.84-.34h-.24v-.19h5.72s-.02.19-.02.19h-.23c-.33,0-.61.11-.85.34-.24.23-.36.5-.36.83v10.45c0,.33.12.61.36.84.24.23.52.35.85.35h.23s.02.19.02.19h-5.72v-.19h.24Z"/>
        <path class="cls-1" d="M50.49,20.65h-.32c-.26,0-.49.08-.69.25-.2.17-.29.38-.29.63v7.34c0,1.54-.48,2.77-1.45,3.67-.97.9-2.29,1.36-3.97,1.36-1.98,0-3.5-.44-4.56-1.33s-1.58-2.11-1.58-3.68v-7.3c0-.28-.1-.5-.29-.68s-.43-.26-.71-.26h-.3v-.19h5.42v.19h-.3c-.28,0-.51.08-.7.25-.19.17-.29.39-.3.65v7.19c0,1.33.33,2.38.98,3.16.65.78,1.55,1.17,2.69,1.17s2.05-.37,2.71-1.1c.67-.73,1-1.73,1.02-2.98v-7.44c0-.26-.1-.48-.29-.65s-.43-.25-.71-.25h-.3v-.19h3.93v.19Z"/>
        <path class="cls-1" d="M68.58,33.45h.3v.19h-5.65v-.17h.28c.21,0,.39-.08.55-.25.15-.17.21-.35.19-.56l-.73-6.83-3.54,6.1c-.47.78-.7,1.48-.72,2.09h-.19s-4.84-8.13-4.84-8.13l-.73,6.78c-.03.2.04.39.19.56.15.17.33.25.55.25h.28v.17h-3.93v-.19h.3c.35,0,.66-.11.91-.32.26-.21.41-.5.46-.87l1.56-12.07h.17s5.84,9.6,5.84,9.6l5.61-9.6h.17s1.6,12.07,1.6,12.07c.06.36.22.65.48.87.26.21.56.32.89.32Z"/>
        <path class="cls-1" d="M80.16,25.86c-.43.98-1.22,1.66-2.37,2.03-.34.11-.65.17-.94.17-.89,0-1.69-.23-2.39-.7v-.19c.94.03,1.7-.28,2.28-.92.51-.55.77-1.27.77-2.17,0-1.37-.48-2.25-1.43-2.65-.3-.13-.63-.19-1-.19h-1.26s0,11.01,0,11.01c0,.33.12.61.36.84.24.23.52.35.85.35h.24v.19h-5.72v-.19h.24c.33,0,.61-.12.84-.35.23-.23.36-.51.37-.84v-10.52c-.05-.43-.26-.74-.64-.94-.18-.1-.36-.15-.57-.15h-.24v-.19h6.29c2.27,0,3.73.72,4.37,2.17.2.48.3,1.01.3,1.59s-.11,1.13-.34,1.65Z"/>
        <path class="cls-1" d="M90.95,33.45c.33,0,.58-.08.75-.24.29-.29.44-.6.45-.92v-4.8h-6.1s0,4.78,0,4.78c0,.33.12.61.36.84.24.23.52.35.85.35h.23s.02.19.02.19h-5.72v-.19h.24c.33,0,.61-.12.84-.35.23-.23.35-.51.37-.84v-10.45c-.01-.33-.13-.6-.37-.83-.23-.23-.51-.34-.84-.34h-.24v-.19h5.72s-.02.19-.02.19h-.23c-.33,0-.61.11-.85.34-.24.23-.36.5-.36.83v4.86h6.1s0-4.86,0-4.86c-.01-.33-.14-.6-.37-.83-.23-.23-.51-.34-.84-.34h-.24v-.19h5.72v.19h-.24c-.33,0-.61.12-.85.35-.24.23-.36.51-.36.84v10.43c0,.33.12.61.36.84.24.23.52.35.85.35h.24v.19h-5.72v-.19h.24Z"/>
      </g>
    </g>
  </g>
</svg>