<?xml version="1.0" encoding="UTF-8"?>
<svg id="Layer_2" data-name="Layer 2" xmlns="http://www.w3.org/2000/svg" viewBox="0 0 82.38 34.02">
  <defs>
    <style>
      .cls-1 {
        fill: #fff;
      }
    </style>
  </defs>
  <g id="Artwork">
    <g>
      <g>
        <path class="cls-1" d="M21.58,13.15h-2.78s0-7.46,0-7.46c0-.81.03-1.7.1-2.67h-.07c-.14.77-.28,1.32-.39,1.65l-2.92,8.48h-2.3s-2.98-8.4-2.98-8.4c-.08-.23-.21-.81-.39-1.74h-.08c.08,1.23.11,2.31.11,3.24v6.9s-2.53,0-2.53,0V.67s4.12,0,4.12,0l2.55,7.39c.2.59.35,1.19.44,1.78h.05c.16-.69.32-1.29.5-1.8l2.55-7.38h4.01s0,12.48,0,12.48Z"/>
        <path class="cls-1" d="M31.55,13.15h-2.6v-1.28s-.03,0-.03,0c-.6,1-1.48,1.5-2.65,1.5-.86,0-1.54-.25-2.04-.74-.5-.49-.74-1.14-.74-1.96,0-1.73,1.02-2.73,3.07-2.99l2.42-.32c0-.97-.53-1.46-1.58-1.46s-2.07.32-3.03.95v-2.07c.38-.2.91-.37,1.57-.52.66-.15,1.27-.23,1.81-.23,2.54,0,3.81,1.27,3.81,3.8v5.32ZM28.97,9.53v-.6s-1.62.21-1.62.21c-.89.12-1.34.52-1.34,1.21,0,.31.11.57.33.77.22.2.51.3.88.3.52,0,.94-.18,1.26-.53.32-.36.49-.81.49-1.35Z"/>
        <path class="cls-1" d="M35.12,2.83c-.46,0-.84-.14-1.14-.41-.3-.28-.44-.61-.44-1.01s.15-.75.44-1.01S34.66,0,35.12,0s.85.13,1.14.39c.29.26.44.6.44,1.01s-.15.76-.44,1.03c-.29.27-.67.4-1.14.4ZM36.48,12.99c0,1.32-.32,2.37-.97,3.16s-1.57,1.18-2.78,1.18c-.4,0-.84-.09-1.31-.26v-2.16c.38.21.72.32,1.02.32.86,0,1.3-.68,1.3-2.04V4.24s2.75,0,2.75,0v8.75Z"/>
        <path class="cls-1" d="M46.8,9.47h-5.81c.09,1.29.91,1.94,2.44,1.94.98,0,1.84-.23,2.58-.7v1.98c-.82.44-1.89.66-3.21.66-1.44,0-2.55-.4-3.35-1.2-.79-.8-1.19-1.91-1.19-3.34,0-1.48.43-2.65,1.29-3.51s1.91-1.3,3.17-1.3c1.3,0,2.3.39,3.01,1.16.71.77,1.07,1.82,1.07,3.14v1.16ZM44.25,7.79c0-1.28-.52-1.91-1.55-1.91-.44,0-.82.18-1.14.55-.32.37-.52.82-.59,1.37h3.28Z"/>
        <path class="cls-1" d="M47.85,12.91v-2.23c.45.27.9.48,1.35.61.45.13.87.2,1.27.2.49,0,.87-.07,1.15-.2.28-.13.42-.34.42-.61,0-.17-.06-.32-.19-.43s-.29-.22-.49-.3c-.2-.09-.42-.17-.66-.23s-.47-.15-.69-.23c-.35-.13-.67-.28-.94-.43-.27-.15-.5-.33-.68-.53-.18-.2-.32-.44-.42-.7-.1-.27-.14-.58-.14-.95,0-.5.11-.93.33-1.29.22-.36.51-.65.87-.88.36-.23.78-.4,1.24-.5.47-.11.95-.16,1.46-.16.39,0,.79.03,1.2.09.41.06.81.15,1.2.27v2.12c-.35-.2-.72-.36-1.12-.46-.4-.1-.79-.15-1.17-.15-.18,0-.35.02-.51.05-.16.03-.3.08-.42.14-.12.06-.22.14-.29.23-.07.1-.1.2-.1.33,0,.16.05.3.16.42s.24.22.41.3c.17.08.36.16.56.23.21.07.41.14.61.2.37.13.7.27.99.42s.55.33.76.53c.21.2.37.44.49.71.11.27.17.6.17.97,0,.53-.11.98-.34,1.35-.23.37-.53.68-.91.91-.38.23-.82.41-1.31.51-.5.11-1.01.16-1.54.16-.98,0-1.89-.15-2.72-.45Z"/>
        <path class="cls-1" d="M61.66,13.04c-.41.21-1.02.32-1.84.32-1.94,0-2.91-1.01-2.91-3.02v-4.08s-1.44,0-1.44,0v-2.03h1.44s0-1.92,0-1.92l2.74-.78v2.71s2,0,2,0v2.03h-2s0,3.6,0,3.6c0,.93.37,1.39,1.1,1.39.29,0,.59-.08.9-.25v2.04Z"/>
        <path class="cls-1" d="M64.6,2.83c-.46,0-.84-.14-1.14-.41-.3-.28-.44-.61-.44-1.01s.15-.75.44-1.01S64.13,0,64.6,0s.85.13,1.14.39c.29.26.44.6.44,1.01s-.15.76-.44,1.03c-.29.27-.67.4-1.14.4ZM65.95,13.15h-2.75s0-8.91,0-8.91h2.75s0,8.91,0,8.91Z"/>
        <path class="cls-1" d="M75.02,12.82c-.62.36-1.52.54-2.69.54-1.37,0-2.48-.41-3.32-1.24-.85-.83-1.27-1.9-1.27-3.21,0-1.51.45-2.71,1.36-3.58.91-.87,2.12-1.31,3.64-1.31,1.05,0,1.81.14,2.28.42v2.33c-.57-.43-1.21-.64-1.92-.64-.79,0-1.41.23-1.88.69-.46.46-.69,1.1-.69,1.91s.22,1.41.66,1.86c.44.45,1.05.67,1.82.67.68,0,1.35-.21,2.01-.64v2.21Z"/>
      </g>
      <g>
        <path class="cls-1" d="M14.22,33.8h-2.78s0-7.46,0-7.46c0-.81.03-1.7.1-2.67h-.07c-.14.77-.28,1.32-.39,1.65l-2.92,8.48h-2.3s-2.98-8.4-2.98-8.4c-.08-.23-.21-.81-.39-1.74h-.08c.08,1.23.11,2.31.11,3.24v6.9s-2.53,0-2.53,0v-12.48s4.12,0,4.12,0l2.55,7.39c.2.59.35,1.19.44,1.78h.05c.16-.69.32-1.29.5-1.8l2.55-7.38h4.01s0,12.48,0,12.48Z"/>
        <path class="cls-1" d="M18.17,23.48c-.46,0-.84-.14-1.14-.41-.3-.28-.44-.61-.44-1.01s.15-.75.44-1.01.68-.39,1.14-.39.85.13,1.14.39c.29.26.44.6.44,1.01s-.15.76-.44,1.03c-.29.27-.67.4-1.14.4ZM19.53,33.8h-2.75s0-8.91,0-8.91h2.75s0,8.91,0,8.91Z"/>
        <path class="cls-1" d="M24.59,33.8h-2.75s0-13.19,0-13.19h2.75s0,13.19,0,13.19Z"/>
        <path class="cls-1" d="M29.66,33.8h-2.75s0-13.19,0-13.19h2.75s0,13.19,0,13.19Z"/>
        <path class="cls-1" d="M39.98,30.13h-5.81c.09,1.29.91,1.94,2.44,1.94.98,0,1.84-.23,2.58-.7v1.98c-.82.44-1.89.66-3.21.66-1.44,0-2.55-.4-3.35-1.2-.79-.8-1.19-1.91-1.19-3.34s.43-2.65,1.29-3.51c.86-.86,1.91-1.3,3.17-1.3s2.3.39,3.01,1.16c.71.77,1.07,1.82,1.07,3.14v1.16ZM37.43,28.44c0-1.28-.52-1.91-1.55-1.91-.44,0-.82.18-1.14.55-.32.37-.52.82-.59,1.37h3.28Z"/>
        <path class="cls-1" d="M50.22,33.8h-2.74s0-4.95,0-4.95c0-1.38-.49-2.07-1.48-2.07-.48,0-.87.18-1.17.55s-.46.83-.46,1.39v5.08s-2.75,0-2.75,0v-8.91s2.75,0,2.75,0v1.41s.03,0,.03,0c.66-1.08,1.61-1.63,2.86-1.63,1.97,0,2.96,1.22,2.96,3.67v5.45Z"/>
        <path class="cls-1" d="M53.78,23.48c-.46,0-.84-.14-1.14-.41-.3-.28-.44-.61-.44-1.01s.15-.75.44-1.01.68-.39,1.14-.39.85.13,1.14.39c.29.26.44.6.44,1.01s-.15.76-.44,1.03c-.29.27-.67.4-1.14.4ZM55.14,33.8h-2.75s0-8.91,0-8.91h2.75s0,8.91,0,8.91Z"/>
        <path class="cls-1" d="M65.92,33.8h-2.74v-1.36s-.04,0-.04,0c-.68,1.05-1.59,1.57-2.72,1.57-2.06,0-3.1-1.25-3.1-3.75v-5.38s2.74,0,2.74,0v5.13c0,1.26.5,1.89,1.5,1.89.49,0,.89-.17,1.18-.52.3-.35.44-.81.44-1.41v-5.1s2.74,0,2.74,0v8.91Z"/>
        <path class="cls-1" d="M82.38,33.8h-2.74s0-5.08,0-5.08c0-1.29-.48-1.94-1.43-1.94-.45,0-.82.19-1.1.58s-.43.87-.43,1.45v4.99s-2.75,0-2.75,0v-5.13c0-1.26-.47-1.89-1.4-1.89-.47,0-.85.19-1.13.56-.28.37-.42.88-.42,1.51v4.95s-2.75,0-2.75,0v-8.91s2.75,0,2.75,0v1.39s.03,0,.03,0c.28-.48.68-.86,1.2-1.16.51-.3,1.07-.45,1.68-.45,1.26,0,2.12.55,2.58,1.66.68-1.11,1.68-1.66,2.99-1.66,1.94,0,2.91,1.19,2.91,3.58v5.54Z"/>
      </g>
    </g>
  </g>
</svg>