<?xml version="1.0" encoding="UTF-8"?>
<svg id="Layer_2" data-name="Layer 2" xmlns="http://www.w3.org/2000/svg" viewBox="0 0 102.77 34.02">
  <defs>
    <style>
      .cls-1 {
        fill: #fff;
      }
    </style>
  </defs>
  <g id="Artwork">
    <g>
      <path class="cls-1" d="M34.51,4.74c-.21-.45-.32-.87-.32-1.28s.05-.78.16-1.13.28-.69.53-1.02.59-.61,1.04-.84C36.53.16,37.26,0,38.12,0c1.13,0,2.2.29,3.21.86,1.33.75,2.25,1.79,2.77,3.12.29.73.44,1.51.44,2.34,0,1.96-.71,3.54-2.12,4.74s-3.26,1.8-5.53,1.8-4.12-.6-5.55-1.8-2.14-2.77-2.14-4.72c0-1.46.41-2.72,1.24-3.8s1.95-1.81,3.36-2.19l.11.16c-.6.51-1.05,1.25-1.36,2.22-.31.98-.46,2.03-.46,3.15,0,1.9.44,3.42,1.32,4.55.88,1.13,2.04,1.69,3.46,1.69s2.58-.53,3.45-1.59c.88-1.06,1.31-2.47,1.31-4.22,0-1.06-.16-2.01-.48-2.86s-.79-1.51-1.4-1.97c-.61-.46-1.29-.7-2.04-.7-.83,0-1.51.22-2.03.65-.73.62-1.09,1.42-1.09,2.38,0,.31.04.62.12.93h-.19Z"/>
      <path class="cls-1" d="M58.97.46h-.3c-.25,0-.46.08-.64.24s-.27.36-.27.59v6.87c0,1.45-.45,2.59-1.36,3.44-.9.85-2.14,1.27-3.72,1.27-1.86,0-3.28-.41-4.27-1.24s-1.48-1.98-1.48-3.45V1.34c0-.26-.09-.47-.27-.63-.18-.16-.4-.25-.66-.25h-.28s0-.18,0-.18h5.08s0,.18,0,.18h-.28c-.26,0-.48.08-.65.24s-.27.36-.28.61v6.73c0,1.25.31,2.23.92,2.96.61.73,1.45,1.09,2.52,1.09s1.92-.34,2.54-1.03c.62-.69.94-1.62.95-2.79V1.3c0-.25-.09-.45-.27-.61s-.4-.24-.66-.24h-.28s0-.18,0-.18h3.68s0,.18,0,.18Z"/>
      <path class="cls-1" d="M71.43,1.94c1.21,1.1,1.82,2.61,1.82,4.51s-.61,3.41-1.82,4.51c-1.21,1.1-2.86,1.66-4.93,1.66h-6.4s0-.18,0-.18h.23c.31,0,.57-.11.78-.33s.33-.48.34-.78V1.46c-.04-.28-.16-.52-.37-.71s-.46-.29-.76-.29h-.23s0-.18,0-.18h6.4c2.08,0,3.72.55,4.93,1.66ZM66.27,11.88c.85,0,1.58-.22,2.19-.66s1.09-1.07,1.42-1.89c.33-.82.49-1.78.49-2.88,0-1.67-.37-2.99-1.1-3.97-.73-.97-1.74-1.46-3-1.46h-2.17v10.86h2.17Z"/>
      <path class="cls-1" d="M5.32,25.89c-.21-.45-.32-.87-.32-1.28s.05-.78.16-1.13.28-.69.53-1.02.59-.61,1.04-.84c.61-.32,1.35-.48,2.2-.48,1.13,0,2.2.29,3.21.86,1.33.75,2.25,1.79,2.77,3.12.29.73.44,1.51.44,2.34,0,1.96-.71,3.54-2.12,4.74s-3.26,1.8-5.53,1.8-4.12-.6-5.55-1.8-2.14-2.77-2.14-4.72c0-1.46.41-2.72,1.24-3.8.83-1.08,1.95-1.81,3.36-2.19l.11.16c-.6.51-1.05,1.25-1.36,2.22-.31.98-.46,2.03-.46,3.15,0,1.9.44,3.42,1.32,4.55s2.04,1.69,3.46,1.69,2.58-.53,3.45-1.59c.88-1.06,1.31-2.47,1.31-4.22,0-1.06-.16-2.01-.48-2.86-.32-.85-.79-1.51-1.4-1.97-.61-.46-1.29-.7-2.04-.7-.83,0-1.51.22-2.03.65-.73.62-1.09,1.42-1.09,2.38,0,.31.04.62.12.93h-.19Z"/>
      <path class="cls-1" d="M26.45,26.49c-.4.92-1.14,1.55-2.22,1.9-.32.11-.61.16-.88.16-.83,0-1.58-.22-2.24-.65v-.18c.88.02,1.59-.26,2.13-.86.48-.52.72-1.19.72-2.03,0-1.28-.45-2.11-1.34-2.49-.28-.12-.59-.18-.93-.18h-1.18v10.31c0,.31.11.57.33.78.22.22.49.33.79.33h.23s0,.18,0,.18h-5.36s0-.18,0-.18h.23c.31,0,.57-.11.78-.33s.33-.48.34-.78v-9.85c-.05-.4-.25-.69-.6-.88-.16-.09-.34-.14-.53-.14h-.23s0-.18,0-.18h5.89c2.13,0,3.49.68,4.09,2.03.19.45.28.94.28,1.49s-.11,1.06-.32,1.54Z"/>
      <path class="cls-1" d="M41.19,21.61h-.3c-.25,0-.46.08-.64.24s-.27.36-.27.59v6.87c0,1.45-.45,2.59-1.36,3.44-.9.85-2.14,1.27-3.72,1.27-1.86,0-3.28-.41-4.27-1.24s-1.48-1.98-1.48-3.45v-6.84c0-.26-.09-.47-.27-.63-.18-.16-.4-.25-.66-.25h-.28s0-.18,0-.18h5.08s0,.18,0,.18h-.28c-.26,0-.48.08-.65.24s-.27.36-.28.61v6.73c0,1.25.31,2.23.92,2.96.61.73,1.45,1.09,2.52,1.09s1.92-.34,2.54-1.03c.62-.69.94-1.62.95-2.79v-6.96c0-.25-.09-.45-.27-.61s-.4-.24-.66-.24h-.28s0-.18,0-.18h3.68s0,.18,0,.18Z"/>
      <path class="cls-1" d="M42.55,33.59c.31,0,.57-.11.78-.33s.33-.48.34-.78v-9.76c-.01-.31-.13-.57-.34-.78s-.48-.33-.78-.33h-.23s0-.18,0-.18h5.36s-.02.18-.02.18h-.21c-.31,0-.57.11-.79.33-.22.22-.33.48-.33.78v10.29h2.31c.86,0,1.58-.25,2.16-.74s1.01-1.19,1.3-2.1h.18s-.81,3.6-.81,3.6h-9.13s0-.18,0-.18h.23Z"/>
      <path class="cls-1" d="M53.3,33.59c.31,0,.57-.11.78-.33s.33-.48.34-.78v-9.82c-.04-.41-.23-.72-.58-.92-.18-.09-.36-.14-.55-.14h-.23s0-.18,0-.18h6.75c.36,0,.76-.04,1.2-.11.43-.07.74-.14.92-.21v3.08h-.18s0-.21,0-.21c0-.53-.16-.95-.47-1.28s-.73-.5-1.26-.52h-2.96v5.13h2.33c.43-.01.79-.16,1.08-.45s.42-.64.42-1.07v-.16h.18s0,4.07,0,4.07h-.18s0-.14,0-.14c0-.59-.24-1.02-.7-1.3-.24-.13-.49-.2-.78-.21h-2.34v4.95h2.31c.86,0,1.58-.25,2.16-.74s1.01-1.19,1.3-2.1h.18s-.81,3.6-.81,3.6h-9.13s0-.18,0-.18h.23Z"/>
      <path class="cls-1" d="M77.85,21.61c-.29,0-.55.1-.76.31s-.32.46-.33.75v9.09c0,.79.05,1.45.16,1.99l.05.26h-.16s-8.9-8.48-8.9-8.48v7c0,.29.11.54.32.75s.46.31.76.31h.33s0,.18,0,.18h-5.34s0-.18,0-.18h.32c.31,0,.56-.1.78-.31s.32-.46.32-.77v-9.15c0-.78-.05-1.42-.16-1.94l-.04-.26h.16s8.9,8.48,8.9,8.48v-6.96c-.01-.31-.12-.56-.33-.77s-.46-.31-.76-.31h-.32s0-.18,0-.18h5.34s0,.18,0,.18h-.33Z"/>
      <path class="cls-1" d="M86.47,34.01c-2.27,0-4.05-.58-5.34-1.72-1.29-1.14-1.94-2.7-1.94-4.69s.64-3.55,1.92-4.7c1.28-1.15,3.04-1.72,5.27-1.72,1.7,0,3.17.32,4.39.95l.04,3.03h-.14c-.6-2.16-1.97-3.24-4.11-3.24-1.39,0-2.48.5-3.29,1.51s-1.21,2.38-1.21,4.12.38,3.12,1.15,4.14,1.81,1.55,3.13,1.59c1.36,0,2.4-.34,3.12-1.02.73-.7,1.23-1.92,1.52-3.63h.14s.18,3.03.18,3.03c-.95,1.57-2.56,2.36-4.83,2.35Z"/>
      <path class="cls-1" d="M93.06,33.59c.31,0,.57-.11.78-.33s.33-.48.34-.78v-9.82c-.04-.41-.23-.72-.58-.92-.18-.09-.36-.14-.55-.14h-.23s0-.18,0-.18h6.75c.36,0,.76-.04,1.2-.11.43-.07.74-.14.92-.21v3.08h-.18s0-.21,0-.21c0-.53-.16-.95-.47-1.28s-.73-.5-1.26-.52h-2.96v5.13h2.33c.43-.01.79-.16,1.08-.45s.42-.64.42-1.07v-.16h.18s0,4.07,0,4.07h-.18s0-.14,0-.14c0-.59-.24-1.02-.7-1.3-.24-.13-.49-.2-.78-.21h-2.34v4.95h2.31c.86,0,1.58-.25,2.16-.74s1.01-1.19,1.3-2.1h.18s-.81,3.6-.81,3.6h-9.13s0-.18,0-.18h.23Z"/>
    </g>
  </g>
</svg>