<?xml version="1.0" encoding="UTF-8"?>
<svg id="Layer_2" data-name="Layer 2" xmlns="http://www.w3.org/2000/svg" viewBox="0 0 87.26 34.02">
  <defs>
    <style>
      .cls-1 {
        fill: #fff;
      }
    </style>
  </defs>
  <g id="Artwork">
    <g>
      <g>
        <path class="cls-1" d="M8.89,13.38l.94-1.1v1.98s-9.12,0-9.12,0V1.86S0,.24,0,.24h.72s8.94,0,8.94,0v1.98s-.94-1.1-.94-1.1H3.27v5.43h5.38s0,.68,0,.68H3.27v6.15h5.62Z"/>
        <path class="cls-1" d="M14.86,13.38h6.56s0,.88,0,.88h-9.12s0-12.39,0-12.39l-.72-1.62h3.27s0,13.14,0,13.14Z"/>
        <path class="cls-1" d="M31.45,13.38l.94-1.1v1.98s-9.12,0-9.12,0V1.86s-.72-1.62-.72-1.62h.72s8.94,0,8.94,0v1.98s-.94-1.1-.94-1.1h-5.44v5.43h5.38s0,.68,0,.68h-5.38v6.15h5.62Z"/>
        <path class="cls-1" d="M46.37,10.81h.96c-.53,1.12-1.27,2.02-2.21,2.68-.94.67-1.97,1-3.09,1-.08,0-.16,0-.24-.02-.11.01-.22.02-.35.02-1.32,0-2.46-.21-3.43-.63-.96-.42-1.75-.97-2.37-1.66-.62-.69-1.08-1.47-1.37-2.36-.29-.89-.44-1.8-.44-2.73,0-1.08.19-2.06.55-2.93.37-.87.89-1.62,1.55-2.24.67-.62,1.47-1.1,2.41-1.43C39.3.17,40.34,0,41.48,0c.75,0,1.35.07,1.8.2,1.38.35,2.51,1.16,3.41,2.44l-3.05,1.24,1.29-1.98c-.61-.56-1.28-.92-2-1.08-.35-.08-.7-.12-1.04-.12-.37.01-.72.08-1.06.2-.04.01-.08.03-.12.04-1.09.39-1.97,1.18-2.65,2.38-.67,1.2-.98,2.56-.93,4.06.07,1.5.47,2.81,1.21,3.94.74,1.13,1.65,1.87,2.74,2.2.06.01.1.03.14.04.34.09.69.14,1.04.14.04,0,.08,0,.12-.02.83-.03,1.6-.3,2.29-.81.7-.51,1.26-1.21,1.7-2.07Z"/>
        <path class="cls-1" d="M48.11.24h11.86s0,1.98,0,1.98l-1.08-1.28h-3.58v13.32s-2.54,0-2.54,0V.94h-3.58s-1.08,1.28-1.08,1.28V.24Z"/>
        <path class="cls-1" d="M69.43,8.99l3.62,5.27h-2.08s-3.5-5.05-3.5-5.05c-1.28-.01-2.3-.24-3.05-.68v5.73s-2.49,0-2.49,0V1.86s-.72-1.62-.72-1.62h.72s6.07,0,6.07,0c1.25,0,2.33.44,3.22,1.31.89.87,1.34,1.93,1.34,3.17,0,.65-.13,1.27-.4,1.85s-.64,1.08-1.11,1.49c-.48.41-1.02.72-1.61.92ZM67.06,8.51c.61,0,1.19-.18,1.73-.53.54-.35.96-.82,1.28-1.4s.47-1.19.47-1.84-.15-1.26-.46-1.84c-.31-.58-.72-1.05-1.25-1.41-.53-.36-1.09-.54-1.71-.54h-.04s-2.66,0-2.66,0v6.69c.08.12.2.22.35.3.64.33,1.32.52,2.02.56.09.01.19.02.27.02Z"/>
        <path class="cls-1" d="M80.84.24l6.42,14.02h-2.9s-1.17-2.52-1.17-2.52l-.86-1.9h-5.68s-1.86,4.43-1.86,4.43h-.78s4.93-11.81,4.93-11.81l-1-2.2h1.9s1,0,1,0ZM76.92,9.23h5.13s-2.06-4.53-2.06-4.53l-.61-1.32-2.45,5.85Z"/>
      </g>
      <g>
        <path class="cls-1" d="M23.01,33.13l.94-1.1v1.98s-9.12,0-9.12,0v-12.39s-.72-1.62-.72-1.62h.72s8.94,0,8.94,0v1.98s-.94-1.1-.94-1.1h-5.44v5.43h5.38s0,.68,0,.68h-5.38v6.15h5.62Z"/>
        <path class="cls-1" d="M28.98,33.13h6.56s0,.88,0,.88h-9.12s0-12.39,0-12.39l-.72-1.62h3.27s0,13.14,0,13.14Z"/>
        <path class="cls-1" d="M36.67,20h3.27s0,14.02,0,14.02h-2.56s0-12.39,0-12.39l-.72-1.62Z"/>
        <path class="cls-1" d="M49.04,26.37l5.27,7.65h-2.96s-3.84-5.61-3.84-5.61l-3.6,4.77.9.84h-2.6s4.78-6.33,4.78-6.33l-5.27-7.69h2.94s3.88,5.63,3.88,5.63l3.62-4.77-.92-.86h2.6s-4.81,6.37-4.81,6.37Z"/>
        <path class="cls-1" d="M55.56,20h3.27s0,14.02,0,14.02h-2.56s0-12.39,0-12.39l-.72-1.62Z"/>
        <path class="cls-1" d="M69.53,28.75l3.62,5.27h-2.08s-3.5-5.05-3.5-5.05c-1.28-.01-2.3-.24-3.05-.68v5.73s-2.49,0-2.49,0v-12.39s-.72-1.62-.72-1.62h.72s6.07,0,6.07,0c1.25,0,2.33.44,3.22,1.31.89.87,1.34,1.93,1.34,3.17,0,.65-.13,1.27-.4,1.85s-.64,1.08-1.11,1.49c-.48.41-1.02.72-1.61.92ZM67.15,28.27c.61,0,1.19-.18,1.73-.53.54-.35.96-.82,1.28-1.4s.47-1.19.47-1.84-.15-1.26-.46-1.84c-.31-.58-.72-1.05-1.25-1.41-.53-.36-1.09-.54-1.71-.54h-.04s-2.66,0-2.66,0v6.69c.08.12.2.22.35.3.64.33,1.32.52,2.02.56.09.01.19.02.27.02Z"/>
      </g>
    </g>
  </g>
</svg>