<?xml version="1.0" encoding="UTF-8"?>
<svg id="Layer_2" data-name="Layer 2" xmlns="http://www.w3.org/2000/svg" viewBox="0 0 75.25 34.02">
  <defs>
    <style>
      .cls-1 {
        fill: #231f20;
      }
    </style>
  </defs>
  <g id="Artwork">
    <g>
      <g>
        <path class="cls-1" d="M19.14,15.14c.18.1.39.2.61.29s.45.15.66.19c.21.04.45.06.71.06s.52-.03.79-.1l.07.16c-.61.29-1.23.43-1.85.43-1.43,0-2.89-.78-4.38-2.33L7.98,5.77v6.57c0,.27.1.49.3.68.2.19.43.28.7.28h.31s0,.16,0,.16h-4.97s0-.16,0-.16h.3c.28,0,.53-.09.72-.28.2-.19.3-.42.3-.7V3.31c-.54-.6-.94-1.02-1.21-1.26-.27-.24-.52-.44-.73-.6s-.42-.29-.62-.4c-.46-.26-.83-.41-1.11-.45s-.54-.06-.79-.06-.51.05-.79.14l-.07-.16C.92.17,1.54,0,2.17,0c1.38,0,2.84.8,4.38,2.41l7.33,7.63V3.36c-.01-.28-.12-.51-.31-.7-.2-.19-.43-.28-.71-.28h-.3s0-.16,0-.16h4.97s0,.16,0,.16h-.31c-.27,0-.51.09-.71.28-.2.19-.3.42-.31.68v9.14l.26.26c.07.06.17.17.3.33.14.16.26.29.37.4.11.11.25.25.42.42.17.17.33.32.48.45s.32.27.53.42c.2.15.39.28.57.38Z"/>
        <path class="cls-1" d="M18.9,13.3c.28,0,.53-.1.73-.3.2-.2.31-.44.32-.72V3.34c-.03-.38-.21-.65-.54-.84-.16-.09-.33-.13-.51-.13h-.21s0-.16,0-.16h6.28c.34,0,.71-.03,1.12-.1.4-.07.69-.13.85-.19v2.81h-.16s0-.19,0-.19c0-.48-.15-.87-.44-1.16s-.68-.45-1.17-.47h-2.76v4.67h2.17c.4,0,.74-.15,1-.41.26-.26.39-.59.39-.97v-.14h.16s0,3.71,0,3.71h-.16s0-.13,0-.13c0-.53-.22-.93-.66-1.19-.22-.12-.46-.18-.72-.19h-2.18v4.51h2.15c.8,0,1.47-.22,2.01-.67.54-.45.94-1.09,1.2-1.91h.16s-.75,3.28-.75,3.28h-8.5s0-.16,0-.16h.21Z"/>
        <path class="cls-1" d="M34.17,13.46h-5.2s0-.16,0-.16h.21c.28,0,.53-.1.73-.29.2-.19.31-.43.32-.71V3.37c-.01-.28-.12-.51-.32-.71s-.45-.29-.73-.29h-.21s0-.16,0-.16h4.76c1.27,0,2.28.23,3.03.67.75.45,1.13,1.14,1.14,2.07-.01.47-.12.88-.31,1.24-.36.66-.93,1.04-1.71,1.14.84.07,1.54.38,2.08.92.55.54.82,1.23.82,2.06,0,1.01-.41,1.78-1.24,2.32s-1.95.81-3.37.81ZM35.27,5.17c-.01-1.51-.71-2.26-2.1-2.26h-.48v9.81h.75s.02,0,.03,0c.75,0,1.36-.21,1.8-.64.45-.43.67-1.08.67-1.94,0-.61-.13-1.11-.38-1.51-.47-.74-1.25-1.11-2.33-1.11v-.14c.57,0,1.04-.18,1.43-.54.38-.36.58-.91.59-1.66Z"/>
        <path class="cls-1" d="M52.22,2.38h-.28c-.23,0-.43.07-.6.22-.17.14-.26.32-.26.54v6.26c0,1.32-.42,2.36-1.26,3.13-.84.77-2,1.16-3.46,1.16-1.73,0-3.05-.38-3.97-1.13-.92-.75-1.38-1.8-1.38-3.14V3.18c0-.24-.09-.43-.26-.58-.17-.15-.37-.23-.61-.23h-.26s0-.16,0-.16h4.72s0,.16,0,.16h-.26c-.24,0-.44.07-.61.22s-.25.33-.26.55v6.14c0,1.13.28,2.03.85,2.7.57.66,1.35.99,2.35.99s1.78-.31,2.36-.94c.58-.63.87-1.47.89-2.55V3.15c0-.23-.08-.41-.25-.55s-.37-.22-.61-.22h-.26s0-.16,0-.16h3.43s0,.16,0,.16Z"/>
        <path class="cls-1" d="M53.48,13.3c.28,0,.53-.1.73-.3.2-.2.31-.44.32-.72V3.39c-.01-.28-.12-.52-.32-.72-.2-.2-.45-.3-.73-.3h-.21s0-.16,0-.16h4.99s-.02.16-.02.16h-.2c-.28,0-.53.1-.74.3-.21.2-.31.44-.31.72v9.38h2.15c.8,0,1.47-.22,2.01-.67.54-.45.94-1.09,1.2-1.91h.16s-.75,3.28-.75,3.28h-8.5s0-.16,0-.16h.21Z"/>
        <path class="cls-1" d="M74.79,13.3h.15s0,.16,0,.16h-5.23s0-.16,0-.16h.15c.24,0,.42-.07.53-.22s.17-.28.17-.41-.03-.26-.08-.39l-.8-1.98h-3.84s-.85,1.98-.85,1.98c-.06.14-.08.27-.08.39s.06.26.17.4c.12.14.3.22.55.22h.13s0,.16,0,.16h-3.51s0-.16,0-.16h.15c.25,0,.5-.07.75-.22s.46-.38.62-.67l3.79-8.4c.51-1.06.79-1.76.82-2.1h.15s4.87,10.47,4.87,10.47c.16.31.37.54.62.7.25.16.51.23.77.23ZM66.11,9.64h3.28s-1.59-3.95-1.59-3.95l-1.69,3.95Z"/>
      </g>
      <g>
        <path class="cls-1" d="M18.82,32.98c.18.1.39.2.61.29s.45.15.66.19c.21.04.45.06.71.06s.52-.03.79-.1l.07.16c-.61.29-1.23.43-1.85.43-1.43,0-2.89-.78-4.38-2.33l-7.77-8.08v6.57c0,.27.1.49.3.68.2.19.43.28.7.28h.31s0,.16,0,.16h-4.97s0-.16,0-.16h.3c.28,0,.53-.09.72-.28.2-.19.3-.42.3-.7v-9.01c-.54-.6-.94-1.02-1.21-1.26-.27-.24-.52-.44-.73-.6s-.42-.29-.62-.4c-.46-.26-.83-.41-1.11-.45s-.54-.06-.79-.06-.51.05-.79.14l-.07-.16c.6-.34,1.22-.51,1.85-.51,1.38,0,2.84.8,4.38,2.41l7.33,7.63v-6.68c-.01-.28-.12-.51-.31-.7-.2-.19-.43-.28-.71-.28h-.3s0-.16,0-.16h4.97s0,.16,0,.16h-.31c-.27,0-.51.09-.71.28-.2.19-.3.42-.31.68v9.14l.26.26c.07.06.17.17.3.33.14.16.26.29.37.4.11.11.25.25.42.42.17.17.33.32.48.45s.32.27.53.42c.2.15.39.28.57.38Z"/>
        <path class="cls-1" d="M18.58,31.14c.28,0,.53-.1.73-.3.2-.2.31-.44.32-.72v-8.95c-.03-.38-.21-.65-.54-.84-.16-.09-.33-.13-.51-.13h-.21s0-.16,0-.16h6.28c.34,0,.71-.03,1.12-.1.4-.07.69-.13.85-.19v2.81h-.16s0-.19,0-.19c0-.48-.15-.87-.44-1.16s-.68-.45-1.17-.47h-2.76v4.67h2.17c.4,0,.74-.15,1-.41.26-.26.39-.59.39-.97v-.14h.16s0,3.71,0,3.71h-.16s0-.13,0-.13c0-.53-.22-.93-.66-1.19-.22-.12-.46-.18-.72-.19h-2.18v4.51h2.15c.8,0,1.47-.22,2.01-.67.54-.45.94-1.09,1.2-1.91h.16s-.75,3.28-.75,3.28h-8.5s0-.16,0-.16h.21Z"/>
        <path class="cls-1" d="M35.41,31.52c-2.11,0-3.77-.53-4.97-1.57-1.2-1.04-1.8-2.46-1.8-4.27s.6-3.24,1.79-4.28c1.19-1.04,2.83-1.57,4.9-1.57,1.59,0,2.95.29,4.08.87l.03,2.76h-.13c-.56-1.97-1.83-2.96-3.82-2.96-1.29,0-2.31.46-3.06,1.37-.75.92-1.12,2.17-1.12,3.75s.36,2.84,1.07,3.77c.72.93,1.69,1.41,2.91,1.45,1.27,0,2.24-.31,2.9-.93.68-.64,1.15-1.75,1.41-3.31h.13s.16,2.76.16,2.76c-.88,1.44-2.38,2.15-4.49,2.14Z"/>
        <path class="cls-1" d="M47.4,20.72v9.43c.01.28.12.51.32.71.2.19.45.29.73.29h.2s.02.16.02.16h-4.99s0-.16,0-.16h.21c.27,0,.51-.1.71-.29.2-.19.31-.42.34-.69v-9.44h-2.21c-.5.01-.9.17-1.2.47-.3.3-.44.69-.44,1.17v.19h-.16s0-2.79,0-2.79c.15.06.43.13.83.19.4.06.77.1,1.11.1h6.61c.53,0,.97-.05,1.31-.13s.55-.13.62-.16v2.79h-.16s0-.19,0-.19c0-.48-.15-.87-.44-1.17-.3-.3-.69-.46-1.2-.47h-2.2Z"/>
        <path class="cls-1" d="M62.67,31.14h.15s0,.16,0,.16h-5.23s0-.16,0-.16h.15c.24,0,.42-.07.53-.22s.17-.28.17-.41-.03-.26-.08-.39l-.8-1.98h-3.84s-.85,1.98-.85,1.98c-.06.14-.08.27-.08.39s.06.26.17.4c.12.14.3.22.55.22h.13s0,.16,0,.16h-3.51s0-.16,0-.16h.15c.25,0,.5-.07.75-.22s.46-.38.62-.67l3.79-8.4c.51-1.06.79-1.76.82-2.1h.15s4.87,10.47,4.87,10.47c.16.31.37.54.62.7.25.16.51.23.77.23ZM54,27.48h3.28s-1.59-3.95-1.59-3.95l-1.69,3.95Z"/>
        <path class="cls-1" d="M67.53,20.76h-.71s-.04,0-.05,0v9.36c0,.4.19.69.52.88.16.09.34.13.53.13h.21s0,.16,0,.16h-4.99s0-.16,0-.16h.21c.39,0,.69-.17.9-.5.09-.15.14-.32.15-.5v-8.91c-.01-.28-.12-.52-.32-.72-.2-.2-.45-.3-.73-.3h-.21s0-.16,0-.16h5.63c1.06,0,1.96.23,2.69.67.37.23.67.54.89.94s.33.86.33,1.37-.09.98-.27,1.41-.48.8-.9,1.12-.93.51-1.52.58c.63.2,1.19.67,1.67,1.41,1.18,1.85,2.06,2.96,2.63,3.31.28.17.64.26,1.07.27v.16h-1.61c-.93,0-1.71-.13-2.33-.38-.62-.25-1.13-.68-1.53-1.29-.2-.31-.45-.78-.75-1.4-.31-.63-.51-1.07-.61-1.34-.3-.64-.67-1-1.12-1.08v-.16h.51c.49,0,.93-.14,1.3-.43.38-.29.63-.76.76-1.41.04-.22.07-.4.07-.53,0-.88-.18-1.51-.54-1.9-.36-.39-.83-.59-1.39-.6h-.49Z"/>
      </g>
    </g>
  </g>
</svg>