<?xml version="1.0" encoding="UTF-8"?>
<svg id="Layer_2" data-name="Layer 2" xmlns="http://www.w3.org/2000/svg" viewBox="0 0 82.91 34.02">
  <defs>
    <style>
      .cls-1 {
        fill: #fff;
      }
    </style>
  </defs>
  <g id="Artwork">
    <g>
      <path class="cls-1" d="M25.22,4.74c-.21-.45-.32-.87-.32-1.28s.05-.78.16-1.13.28-.69.53-1.02c.25-.33.59-.61,1.04-.84C27.24.16,27.98,0,28.83,0c1.13,0,2.2.29,3.21.86,1.33.75,2.25,1.79,2.77,3.12.29.73.44,1.51.44,2.34,0,1.96-.71,3.54-2.12,4.74-1.42,1.2-3.26,1.8-5.53,1.8s-4.12-.6-5.55-1.8c-1.43-1.2-2.14-2.77-2.14-4.72,0-1.46.41-2.72,1.24-3.8.83-1.07,1.95-1.81,3.36-2.19l.11.16c-.6.51-1.05,1.25-1.36,2.22-.31.98-.46,2.03-.46,3.16,0,1.9.44,3.42,1.32,4.55.88,1.13,2.04,1.69,3.46,1.69,1.43,0,2.58-.53,3.45-1.6.88-1.06,1.31-2.47,1.31-4.22,0-1.06-.16-2.01-.48-2.86-.32-.85-.79-1.51-1.4-1.97-.61-.46-1.29-.7-2.04-.7-.83,0-1.51.22-2.03.65-.73.62-1.09,1.42-1.09,2.38,0,.31.04.62.12.93h-.19Z"/>
      <path class="cls-1" d="M49.68.46h-.3c-.25,0-.46.08-.64.24-.18.16-.27.36-.27.59v6.87c0,1.45-.45,2.59-1.36,3.44-.9.85-2.14,1.27-3.72,1.27-1.86,0-3.28-.41-4.27-1.24-.99-.83-1.48-1.98-1.48-3.45V1.34c0-.26-.09-.47-.27-.63-.18-.16-.4-.25-.66-.25h-.28s0-.18,0-.18h5.08s0,.18,0,.18h-.28c-.26,0-.48.08-.65.24-.18.16-.27.36-.28.61v6.73c0,1.25.31,2.23.92,2.96.61.73,1.45,1.09,2.52,1.09,1.07,0,1.92-.34,2.54-1.03.62-.69.94-1.62.95-2.79V1.3c0-.25-.09-.45-.27-.61-.18-.16-.4-.24-.66-.24h-.28s0-.18,0-.18h3.68s0,.18,0,.18Z"/>
      <path class="cls-1" d="M62.14,1.94c1.21,1.1,1.82,2.61,1.82,4.51s-.61,3.41-1.82,4.51c-1.21,1.1-2.86,1.66-4.93,1.66h-6.4s0-.18,0-.18h.23c.31,0,.57-.11.78-.33s.33-.48.34-.78V1.46c-.04-.28-.16-.52-.37-.71s-.46-.29-.76-.29h-.23s0-.18,0-.18h6.4c2.08,0,3.72.55,4.93,1.66ZM56.98,11.88c.85,0,1.58-.22,2.19-.66.62-.44,1.09-1.07,1.42-1.89s.49-1.78.49-2.88c0-1.67-.37-2.99-1.1-3.97-.73-.98-1.74-1.46-3-1.46h-2.17s0,10.86,0,10.86h2.17Z"/>
      <path class="cls-1" d="M7.88,33.59h.23s0,.18,0,.18H2.75s0-.18,0-.18h.23c.31,0,.57-.11.78-.33s.33-.48.34-.78v-10.33s-1.67.07-1.67.07c-1.1.05-1.66.46-1.66,1.23,0,.32.11.58.33.8.22.22.52.33.91.33h.11s0,.11,0,.11c-.24.08-.43.12-.6.12-.53,0-.93-.19-1.22-.56C.1,23.99,0,23.7,0,23.37c0-.52.2-.94.61-1.28.41-.34,1.03-.53,1.88-.59.15-.01.65-.03,1.48-.07,1.9-.07,3.28-.19,4.14-.35l.03.18c-.51.08-.86.25-1.07.51s-.31.64-.33,1.15v9.57c.01.31.13.57.34.78s.48.33.78.33Z"/>
      <path class="cls-1" d="M23.19,21.61c-.29,0-.55.1-.76.31-.21.21-.32.46-.33.75v9.09c0,.79.05,1.45.16,1.99l.05.26h-.16s-8.9-8.48-8.9-8.48v7c0,.29.11.54.32.75.21.21.46.31.76.31h.33s0,.18,0,.18h-5.34s0-.18,0-.18h.32c.31,0,.56-.1.78-.31.21-.21.32-.46.32-.77v-9.15c0-.78-.05-1.42-.16-1.94l-.04-.26h.16s8.9,8.48,8.9,8.48v-6.96c-.01-.31-.12-.56-.33-.77-.21-.21-.46-.31-.76-.31h-.32s0-.18,0-.18h5.34s0,.18,0,.18h-.33Z"/>
      <path class="cls-1" d="M31.25,22.15v10.35c.01.31.13.56.34.78.22.21.48.32.78.32h.21s.02.18.02.18h-5.36s0-.18,0-.18h.23c.29,0,.55-.11.77-.32.22-.21.34-.46.36-.76v-10.36s-2.38,0-2.38,0c-.54.01-.97.18-1.29.51-.32.33-.48.76-.48,1.29v.21s-.18,0-.18,0v-3.07c.16.07.46.14.89.21.43.07.83.11,1.19.11h7.1c.57-.01,1.05-.06,1.41-.14s.59-.14.67-.18v3.07s-.18,0-.18,0v-.21c0-.53-.16-.96-.48-1.29-.32-.33-.75-.5-1.29-.51h-2.36Z"/>
      <path class="cls-1" d="M36.75,33.59c.31,0,.57-.11.78-.33s.33-.48.34-.78v-9.82c-.04-.41-.23-.72-.58-.92-.18-.09-.36-.14-.55-.14h-.23s0-.18,0-.18h6.75c.36,0,.76-.04,1.2-.11.43-.07.74-.14.92-.21v3.08s-.18,0-.18,0v-.21c0-.53-.16-.95-.47-1.28-.31-.32-.73-.5-1.26-.52h-2.96s0,5.13,0,5.13h2.33c.44-.01.79-.16,1.08-.45.28-.29.42-.64.42-1.07v-.16s.18,0,.18,0v4.07s-.18,0-.18,0v-.14c0-.59-.24-1.02-.7-1.3-.24-.13-.49-.2-.78-.21h-2.34s0,4.95,0,4.95h2.31c.86,0,1.58-.25,2.16-.74.58-.49,1.01-1.19,1.3-2.1h.18s-.81,3.6-.81,3.6h-9.13s0-.18,0-.18h.23Z"/>
      <path class="cls-1" d="M61.3,21.61c-.29,0-.55.1-.76.31-.21.21-.32.46-.33.75v9.09c0,.79.05,1.45.16,1.99l.05.26h-.16s-8.9-8.48-8.9-8.48v7c0,.29.11.54.32.75.21.21.46.31.76.31h.33s0,.18,0,.18h-5.34s0-.18,0-.18h.32c.31,0,.56-.1.78-.31.21-.21.32-.46.32-.77v-9.15c0-.78-.05-1.42-.16-1.94l-.04-.26h.16s8.9,8.48,8.9,8.48v-6.96c-.01-.31-.12-.56-.33-.77-.21-.21-.46-.31-.76-.31h-.32s0-.18,0-.18h5.34s0,.18,0,.18h-.33Z"/>
      <path class="cls-1" d="M63.03,32.13c0-.85.18-1.57.55-2.17h.16c-.01.09-.02.19-.02.28,0,.81.29,1.52.87,2.12.58.61,1.38.91,2.39.91.79,0,1.4-.19,1.84-.56.44-.38.66-.85.66-1.43,0-.69-.47-1.3-1.41-1.82l-3.07-2.03c-.61-.35-1.05-.78-1.31-1.28-.26-.5-.4-1.01-.4-1.52,0-1.1.35-1.96,1.05-2.56.7-.6,1.6-.9,2.69-.9.65,0,1.44.06,2.4.18h1.11s-.23,2.59-.23,2.59h-.18c0-.61-.23-1.1-.68-1.47-.45-.37-1.05-.56-1.81-.56-.92,0-1.58.28-1.99.85-.21.27-.32.58-.32.92,0,.56.41,1.09,1.23,1.57l3.37,2.19c1.06.61,1.59,1.51,1.59,2.7,0,1.26-.43,2.22-1.28,2.88-.85.66-1.98,1-3.39,1-.8,0-1.54-.1-2.21-.29-.68-.19-1.17-.45-1.49-.78-.08-.22-.12-.49-.12-.81Z"/>
      <path class="cls-1" d="M73.2,33.59c.31,0,.57-.11.78-.33s.33-.48.34-.78v-9.82c-.04-.41-.23-.72-.58-.92-.18-.09-.36-.14-.55-.14h-.23s0-.18,0-.18h6.75c.36,0,.76-.04,1.2-.11.43-.07.74-.14.92-.21v3.08s-.18,0-.18,0v-.21c0-.53-.16-.95-.47-1.28-.31-.32-.73-.5-1.26-.52h-2.96s0,5.13,0,5.13h2.33c.44-.01.79-.16,1.08-.45.28-.29.42-.64.42-1.07v-.16s.18,0,.18,0v4.07s-.18,0-.18,0v-.14c0-.59-.24-1.02-.7-1.3-.24-.13-.49-.2-.78-.21h-2.34s0,4.95,0,4.95h2.31c.86,0,1.58-.25,2.16-.74.58-.49,1.01-1.19,1.3-2.1h.18s-.81,3.6-.81,3.6h-9.13s0-.18,0-.18h.23Z"/>
    </g>
  </g>
</svg>