<svg xmlns="http://www.w3.org/2000/svg" xmlns:xlink="http://www.w3.org/1999/xlink" width="1921.484" height="418.472" viewBox="0 0 1921.484 418.472">
  <defs>
    <clipPath id="clip-path">
      <rect id="Rectangle_1823" data-name="Rectangle 1823" width="190.711" height="79.033" fill="none"/>
    </clipPath>
  </defs>
  <g id="Group_3" data-name="Group 3" transform="translate(1.484 -3295.5)">
    <rect id="Rectangle_254" data-name="Rectangle 254" width="1920" height="417.972" transform="translate(0 3296)"/>
    <text id="Explore" transform="translate(867 3353)" fill="#fff" font-size="18" font-family="Raleway-Bold, Raleway" font-weight="700"><tspan x="0" y="0">Explore</tspan></text>
    <text id="Follow" transform="translate(1235.985 3353)" fill="#fff" font-size="18" font-family="Raleway-Bold, Raleway" font-weight="700"><tspan x="0" y="0">Follow</tspan></text>
    <text id="Contact" transform="translate(1519.5 3353)" fill="#fff" font-size="18" font-family="Raleway-Bold, Raleway" font-weight="700"><tspan x="0" y="0">Contact</tspan></text>
    <text id="AI_Fragrance_Finder_Our_Story_Our_Fragrances_Fragrance_Matchmaker_FAQ_Contact_Us" data-name="AI Fragrance Finder

Our Story

Our Fragrances

Fragrance Matchmaker

FAQ

Contact Us" transform="translate(867 3389)" fill="#fff" font-size="18" font-family="Raleway-Regular, Raleway"><tspan x="0" y="0">AI Fragrance Finder</tspan><tspan x="0" y="20"></tspan><tspan x="0" y="40">Our Story</tspan><tspan x="0" y="60"></tspan><tspan x="0" y="80">Our Fragrances</tspan><tspan x="0" y="100"></tspan><tspan x="0" y="120">Fragrance Matchmaker</tspan><tspan x="0" y="140"></tspan><tspan x="0" y="160">FAQ</tspan><tspan x="0" y="180"></tspan><tspan x="0" y="200">Contact Us</tspan></text>
    <text id="Facebook_Instagram_Youtube_TikTok" data-name="Facebook

Instagram

Youtube

TikTok" transform="translate(1235.985 3389)" fill="#fff" font-size="18" font-family="Raleway-Regular, Raleway"><tspan x="0" y="0">Facebook</tspan><tspan x="0" y="20"></tspan><tspan x="0" y="40">Instagram</tspan><tspan x="0" y="60"></tspan><tspan x="0" y="80">Youtube</tspan><tspan x="0" y="100"></tspan><tspan x="0" y="120">TikTok</tspan></text>
    <text id="info_maisonavenirfragrances.com" data-name="info@maisonavenirfragrances.com" transform="translate(1519.5 3389)" fill="#fff" font-size="18" font-family="Raleway-Regular, Raleway"><tspan x="0" y="0">info@maisonavenirfragrances.com</tspan></text>
    <path id="Path_94" data-name="Path 94" d="M6469,2205.028H8390.484" transform="translate(-6470.484 1090.972)" fill="none" stroke="#c9c9c9" stroke-width="1"/>
    <path id="Path_95" data-name="Path 95" d="M6977.413,2205.028V2536.51" transform="translate(-6163.912 1090.972)" fill="none" stroke="#c9c9c9" stroke-width="1"/>
    <path id="Path_96" data-name="Path 96" d="M6977.413,2205.028V2536.51" transform="translate(-5804.443 1090.972)" fill="none" stroke="#c9c9c9" stroke-width="1"/>
    <path id="Path_97" data-name="Path 97" d="M6977.413,2205.028V2536.51" transform="translate(-5520.927 1090.972)" fill="none" stroke="#c9c9c9" stroke-width="1"/>
    <path id="Path_70" data-name="Path 70" d="M-1611,4756.55H309" transform="translate(1609.516 -1129.068)" fill="none" stroke="#c9c9c9" stroke-width="1"/>
    <text id="_2024_Maison._All_Rights_Reserved." data-name="© 2024 Maison. All Rights Reserved." transform="translate(140 3679.482)" fill="#fff" font-size="18" font-family="Raleway-Regular, Raleway"><tspan x="0" y="0">© 2024 Maison. All Rights Reserved.</tspan></text>
    <text id="Privacy_Policy_Cookies_Policy_" data-name="Privacy Policy​             Cookies Policy​" transform="translate(1519.5 3679.482)" fill="#fff" font-size="18" font-family="Raleway-Regular, Raleway"><tspan x="0" y="0" xml:space="preserve">Privacy Policy​             Cookies Policy​</tspan></text>
    <g id="Group_3028" data-name="Group 3028" transform="translate(140 3336)">
      <path id="Path_10033" data-name="Path 10033" d="M12.76,48.756,8.015,57.8l-4.7-9.044H0V64.651H3.09V54.129l4.1,7.836H8.865l4.1-7.836V64.651h3.09V48.756Z" transform="translate(0 -2.175)" fill="#f6f6f6"/>
      <g id="Group_3027" data-name="Group 3027" transform="translate(0 0)">
        <g id="Group_3026" data-name="Group 3026" clip-path="url(#clip-path)">
          <path id="Path_10034" data-name="Path 10034" d="M23.011,65.059a4.433,4.433,0,0,1-1.59-.28A3.816,3.816,0,0,1,20.145,64a3.65,3.65,0,0,1-.839-1.175,3.559,3.559,0,0,1-.3-1.478,3.251,3.251,0,0,1,.37-1.532,3.513,3.513,0,0,1,1.03-1.2,5.111,5.111,0,0,1,1.578-.773A6.89,6.89,0,0,1,24,57.561a8.667,8.667,0,0,1,1.533.134,6.252,6.252,0,0,1,1.332.381V57.4a2.354,2.354,0,0,0-.66-1.791,2.75,2.75,0,0,0-1.96-.627,5.2,5.2,0,0,0-1.835.335,8.574,8.574,0,0,0-1.836.985l-.917-1.9a8.657,8.657,0,0,1,4.88-1.5,5.717,5.717,0,0,1,3.929,1.242,4.555,4.555,0,0,1,1.4,3.593v3.65a1.047,1.047,0,0,0,.168.671.735.735,0,0,0,.548.225v2.552a6.719,6.719,0,0,1-1.321.157,2,2,0,0,1-1.309-.38,1.634,1.634,0,0,1-.571-1.008l-.067-.649a5.2,5.2,0,0,1-1.9,1.567,5.463,5.463,0,0,1-2.4.537m.85-2.194A3.914,3.914,0,0,0,25.3,62.6a2.624,2.624,0,0,0,1.064-.717,1.079,1.079,0,0,0,.492-.85V59.687a7.32,7.32,0,0,0-1.164-.325,6.276,6.276,0,0,0-1.21-.123,3.208,3.208,0,0,0-1.9.526,1.579,1.579,0,0,0-.739,1.332,1.6,1.6,0,0,0,.582,1.265,2.115,2.115,0,0,0,1.433.5" transform="translate(-0.848 -2.36)" fill="#f6f6f6"/>
          <path id="Path_10035" data-name="Path 10035" d="M33.3,48.287h3v2.978h-3Zm0,4.612h3v11.73h-3Z" transform="translate(-1.485 -2.154)" fill="#f6f6f6"/>
          <path id="Path_10036" data-name="Path 10036" d="M43.663,65.058a9.077,9.077,0,0,1-2.888-.47,7.045,7.045,0,0,1-2.417-1.343l1.119-1.88a9.628,9.628,0,0,0,2.093,1.152,5.6,5.6,0,0,0,2.026.393,2.566,2.566,0,0,0,1.41-.336,1.082,1.082,0,0,0,.515-.963.961.961,0,0,0-.6-.917,12.964,12.964,0,0,0-1.97-.672q-1.142-.314-1.947-.6a4.984,4.984,0,0,1-1.3-.66,2.257,2.257,0,0,1-.717-.851,2.715,2.715,0,0,1-.225-1.152,3.638,3.638,0,0,1,.348-1.612,3.5,3.5,0,0,1,.974-1.22,4.5,4.5,0,0,1,1.467-.773,5.968,5.968,0,0,1,1.824-.268,7.865,7.865,0,0,1,2.474.38,6.05,6.05,0,0,1,2.115,1.231l-1.209,1.813a7.039,7.039,0,0,0-1.735-.985,4.738,4.738,0,0,0-1.668-.313,2.409,2.409,0,0,0-1.275.313,1.089,1.089,0,0,0-.515,1.007.972.972,0,0,0,.122.515,1.078,1.078,0,0,0,.393.358,3.783,3.783,0,0,0,.705.3q.436.145,1.085.3,1.208.314,2.071.627a5.663,5.663,0,0,1,1.41.717,2.548,2.548,0,0,1,.805.929,2.853,2.853,0,0,1,.258,1.265,3.263,3.263,0,0,1-1.276,2.72,5.491,5.491,0,0,1-3.47,1" transform="translate(-1.711 -2.359)" fill="#f6f6f6"/>
          <path id="Path_10037" data-name="Path 10037" d="M56.3,65.059a6.444,6.444,0,0,1-2.574-.492,5.778,5.778,0,0,1-1.937-1.333,5.847,5.847,0,0,1-1.22-1.937,6.313,6.313,0,0,1-.426-2.305,6.383,6.383,0,0,1,.426-2.328,5.867,5.867,0,0,1,1.22-1.937A5.776,5.776,0,0,1,53.726,53.4,6.444,6.444,0,0,1,56.3,52.9a6.369,6.369,0,0,1,2.563.493,5.8,5.8,0,0,1,1.925,1.332,5.9,5.9,0,0,1,1.22,1.937,6.383,6.383,0,0,1,.426,2.328,6.313,6.313,0,0,1-.426,2.305A5.976,5.976,0,0,1,60.8,63.235a5.664,5.664,0,0,1-1.925,1.333,6.452,6.452,0,0,1-2.575.492m-3.067-6.067a4.086,4.086,0,0,0,.235,1.422,3.458,3.458,0,0,0,.65,1.108,2.887,2.887,0,0,0,.974.727,2.96,2.96,0,0,0,2.417,0,2.891,2.891,0,0,0,.974-.727,3.439,3.439,0,0,0,.649-1.12,4.178,4.178,0,0,0,.235-1.432,4.123,4.123,0,0,0-.235-1.411,3.444,3.444,0,0,0-.649-1.119,2.906,2.906,0,0,0-.974-.728,2.864,2.864,0,0,0-1.209-.257,2.76,2.76,0,0,0-1.209.268,3.026,3.026,0,0,0-.974.739,3.434,3.434,0,0,0-.65,1.12,4.113,4.113,0,0,0-.235,1.41" transform="translate(-2.237 -2.36)" fill="#f6f6f6"/>
          <path id="Path_10038" data-name="Path 10038" d="M76.019,64.836h-3V58.254a3.435,3.435,0,0,0-.492-2.06,1.619,1.619,0,0,0-1.366-.649,2.562,2.562,0,0,0-.917.179,3.38,3.38,0,0,0-.885.5,4.09,4.09,0,0,0-.75.773,3.049,3.049,0,0,0-.493.985v6.85h-3V53.106h2.71v2.172a4.442,4.442,0,0,1,1.88-1.746,6.037,6.037,0,0,1,2.776-.627,3.526,3.526,0,0,1,1.79.4,2.914,2.914,0,0,1,1.075,1.052,4.427,4.427,0,0,1,.526,1.477,9.739,9.739,0,0,1,.145,1.68Z" transform="translate(-2.905 -2.36)" fill="#f6f6f6"/>
          <path id="Path_10039" data-name="Path 10039" d="M89.718,64.854a5.327,5.327,0,0,1-2.239-.47,5.265,5.265,0,0,1-1.767-1.3,6.083,6.083,0,0,1-1.154-1.937,6.732,6.732,0,0,1-.414-2.384,7.035,7.035,0,0,1,.391-2.373,6.231,6.231,0,0,1,1.086-1.925,5.012,5.012,0,0,1,1.658-1.3,4.724,4.724,0,0,1,2.1-.47,4.449,4.449,0,0,1,2.339.627,4.536,4.536,0,0,1,1.622,1.634V48.287h3V61.182a1.106,1.106,0,0,0,.157.672.7.7,0,0,0,.538.225V64.63a6.849,6.849,0,0,1-1.275.157,2.08,2.08,0,0,1-1.321-.4,1.476,1.476,0,0,1-.582-1.052l-.067-.739a4.275,4.275,0,0,1-1.758,1.691,5,5,0,0,1-2.317.57M90.5,62.3a2.843,2.843,0,0,0,.873-.145,3.083,3.083,0,0,0,.827-.415,3.636,3.636,0,0,0,.684-.627,2.609,2.609,0,0,0,.458-.783v-2.8a3.259,3.259,0,0,0-.5-.907,3.744,3.744,0,0,0-.739-.717,3.911,3.911,0,0,0-.872-.482,2.484,2.484,0,0,0-.907-.179,2.708,2.708,0,0,0-1.243.29,2.971,2.971,0,0,0-.974.795,3.83,3.83,0,0,0-.627,1.153,4.124,4.124,0,0,0-.225,1.343A3.7,3.7,0,0,0,87.5,60.2a3.526,3.526,0,0,0,.672,1.1,3.062,3.062,0,0,0,1.017.739A3.15,3.15,0,0,0,90.5,62.3" transform="translate(-3.753 -2.154)" fill="#f6f6f6"/>
          <path id="Path_10040" data-name="Path 10040" d="M105.411,65.059a6.524,6.524,0,0,1-2.552-.482,5.761,5.761,0,0,1-3.19-3.235,6.19,6.19,0,0,1-.437-2.306,6.552,6.552,0,0,1,.425-2.362,5.765,5.765,0,0,1,1.231-1.947,5.875,5.875,0,0,1,1.959-1.332,6.519,6.519,0,0,1,2.586-.493A6.356,6.356,0,0,1,108,53.4a5.9,5.9,0,0,1,1.925,1.32,5.624,5.624,0,0,1,1.209,1.925,6.414,6.414,0,0,1,.415,2.283c0,.194,0,.381-.011.56a2.314,2.314,0,0,1-.056.448h-9.067a3.491,3.491,0,0,0,.336,1.231,3.028,3.028,0,0,0,.695.918,2.993,2.993,0,0,0,.962.582,3.152,3.152,0,0,0,1.12.2,3.457,3.457,0,0,0,1.69-.437,2.308,2.308,0,0,0,1.085-1.152l2.575.716A5.228,5.228,0,0,1,108.8,64.2a6.413,6.413,0,0,1-3.392.863m3.045-7.075a3.117,3.117,0,0,0-.974-2.115,3.054,3.054,0,0,0-4.153.011,3.055,3.055,0,0,0-.66.917,3.224,3.224,0,0,0-.3,1.187Z" transform="translate(-4.427 -2.36)" fill="#f6f6f6"/>
          <path id="Path_10041" data-name="Path 10041" d="M119.642,48.287h3V60.869a1.477,1.477,0,0,0,.313,1.007,1.125,1.125,0,0,0,.9.358,2.223,2.223,0,0,0,.593-.09,3.912,3.912,0,0,0,.615-.224l.4,2.283a5.8,5.8,0,0,1-1.41.448,7.718,7.718,0,0,1-1.455.157,3.007,3.007,0,0,1-2.183-.75,2.842,2.842,0,0,1-.772-2.138Z" transform="translate(-5.337 -2.154)" fill="#f6f6f6"/>
          <path id="Path_10042" data-name="Path 10042" d="M127.027,53.9l.493-2.731h-.9V48.147h3.023v3.067l-.806,2.687Z" transform="translate(-5.648 -2.148)" fill="#f6f6f6"/>
          <path id="Path_10043" data-name="Path 10043" d="M135.479,48.756h2.731l6.044,15.894h-3.179L139.6,60.688h-5.553l-1.454,3.962h-3.18Zm3.56,9.76-2.194-6.246-2.283,6.246Z" transform="translate(-5.773 -2.175)" fill="#f6f6f6"/>
          <path id="Path_10044" data-name="Path 10044" d="M148.8,64.845l-4.32-11.73h3.089l2.978,9.29,3-9.29h2.82l-4.32,11.73Z" transform="translate(-6.445 -2.37)" fill="#f6f6f6"/>
          <path id="Path_10045" data-name="Path 10045" d="M163.546,65.059a6.524,6.524,0,0,1-2.552-.482,5.761,5.761,0,0,1-3.19-3.235,6.19,6.19,0,0,1-.437-2.306,6.552,6.552,0,0,1,.425-2.362,5.766,5.766,0,0,1,1.231-1.947,5.876,5.876,0,0,1,1.959-1.332,6.519,6.519,0,0,1,2.586-.493,6.356,6.356,0,0,1,2.563.493,5.9,5.9,0,0,1,1.925,1.32,5.624,5.624,0,0,1,1.209,1.925,6.413,6.413,0,0,1,.415,2.283c0,.194,0,.381-.011.56a2.314,2.314,0,0,1-.056.448h-9.067a3.49,3.49,0,0,0,.336,1.231,3.028,3.028,0,0,0,.695.918,2.993,2.993,0,0,0,.962.582,3.152,3.152,0,0,0,1.12.2,3.457,3.457,0,0,0,1.69-.437,2.308,2.308,0,0,0,1.085-1.152l2.575.716a5.228,5.228,0,0,1-2.071,2.205,6.413,6.413,0,0,1-3.392.863m3.045-7.075a3.117,3.117,0,0,0-.974-2.115,3.054,3.054,0,0,0-4.153.011,3.055,3.055,0,0,0-.66.917,3.224,3.224,0,0,0-.3,1.187Z" transform="translate(-7.02 -2.36)" fill="#f6f6f6"/>
          <path id="Path_10046" data-name="Path 10046" d="M183.079,64.836h-3V58.254a3.435,3.435,0,0,0-.492-2.06,1.619,1.619,0,0,0-1.366-.649,2.561,2.561,0,0,0-.917.179,3.38,3.38,0,0,0-.885.5,4.09,4.09,0,0,0-.75.773,3.049,3.049,0,0,0-.493.985v6.85h-3V53.106h2.71v2.172a4.442,4.442,0,0,1,1.88-1.746,6.037,6.037,0,0,1,2.776-.627,3.526,3.526,0,0,1,1.79.4,2.914,2.914,0,0,1,1.075,1.052,4.427,4.427,0,0,1,.526,1.477,9.739,9.739,0,0,1,.145,1.68Z" transform="translate(-7.68 -2.36)" fill="#f6f6f6"/>
          <path id="Path_10047" data-name="Path 10047" d="M186.329,48.287h3v2.978h-3Zm0,4.612h3v11.73h-3Z" transform="translate(-8.312 -2.154)" fill="#f6f6f6"/>
          <path id="Path_10048" data-name="Path 10048" d="M199.289,55.7a5.915,5.915,0,0,0-2.44.526,3.076,3.076,0,0,0-1.545,1.51v7.1h-3V53.107h2.753v2.507a5.376,5.376,0,0,1,.739-1.085,5.685,5.685,0,0,1,.917-.84,4.314,4.314,0,0,1,1-.548,2.767,2.767,0,0,1,.974-.19h.37a1.25,1.25,0,0,1,.235.022Z" transform="translate(-8.578 -2.362)" fill="#f6f6f6"/>
          <path id="Path_10049" data-name="Path 10049" d="M90.5,14.875,99.3,0l8.811,14.875h-3.631l-5.18-8.8-5.155,8.8Z" transform="translate(-4.037 0)" fill="#f6f6f6"/>
          <path id="Path_10050" data-name="Path 10050" d="M90.129,17.952,82.393,31.515h3.162L92.083,21l6.854,10.022L105.8,21l6.546,10.518h3.108l-7.723-13.589h-3.181l-5.614,8.311L93.37,17.945Z" transform="translate(-3.675 -0.8)" fill="#f6f6f6"/>
          <path id="Path_10051" data-name="Path 10051" d="M39.942,79.834v-7.7h5.171V73.45H41.438v1.983h3.056v1.213H41.438v3.187Z" transform="translate(-1.782 -3.218)" fill="#f6f6f6"/>
          <path id="Path_10052" data-name="Path 10052" d="M46.306,71.911h1.452v1.442H46.306Zm0,2.233h1.452v5.68H46.306Z" transform="translate(-2.066 -3.208)" fill="#f6f6f6"/>
          <path id="Path_10053" data-name="Path 10053" d="M54.478,79.923H53.025V76.736a1.654,1.654,0,0,0-.239-1,.781.781,0,0,0-.661-.314,1.235,1.235,0,0,0-.444.087,1.61,1.61,0,0,0-.428.244,1.983,1.983,0,0,0-.363.374,1.481,1.481,0,0,0-.239.477v3.317H49.2v-5.68h1.312V75.3a2.146,2.146,0,0,1,.91-.846,2.917,2.917,0,0,1,1.343-.3,1.713,1.713,0,0,1,.867.195,1.412,1.412,0,0,1,.521.51,2.131,2.131,0,0,1,.254.715,4.618,4.618,0,0,1,.071.813Z" transform="translate(-2.195 -3.308)" fill="#f6f6f6"/>
          <path id="Path_10054" data-name="Path 10054" d="M58.668,80.032a3.143,3.143,0,0,1-1.235-.233,2.784,2.784,0,0,1-1.545-1.566,3,3,0,0,1-.211-1.117,3.163,3.163,0,0,1,.206-1.144,2.777,2.777,0,0,1,.6-.943,2.863,2.863,0,0,1,.948-.645,3.165,3.165,0,0,1,1.253-.238,3.085,3.085,0,0,1,1.241.238,2.864,2.864,0,0,1,.932.64,2.717,2.717,0,0,1,.586.932,3.108,3.108,0,0,1,.2,1.106c0,.094,0,.183-.006.27a1.135,1.135,0,0,1-.027.217h-4.39a1.686,1.686,0,0,0,.162.6,1.46,1.46,0,0,0,.336.444,1.444,1.444,0,0,0,.466.282,1.528,1.528,0,0,0,.542.1,1.677,1.677,0,0,0,.818-.211,1.119,1.119,0,0,0,.526-.558l1.246.347a2.529,2.529,0,0,1-1,1.067,3.1,3.1,0,0,1-1.642.417m1.474-3.425a1.512,1.512,0,0,0-.471-1.024A1.519,1.519,0,0,0,58.11,75.3a1.421,1.421,0,0,0-.45.288,1.479,1.479,0,0,0-.32.444,1.561,1.561,0,0,0-.146.574Z" transform="translate(-2.484 -3.308)" fill="#f6f6f6"/>
          <path id="Path_10055" data-name="Path 10055" d="M67.213,74.9v4.932h-1.5v-7.7h1.16l4.011,5.051V72.149h1.5v7.685H71.17Z" transform="translate(-2.931 -3.218)" fill="#f6f6f6"/>
          <path id="Path_10056" data-name="Path 10056" d="M74.226,71.911h1.452v1.442H74.226Zm0,2.233h1.452v5.68H74.226Z" transform="translate(-3.311 -3.208)" fill="#f6f6f6"/>
          <path id="Path_10057" data-name="Path 10057" d="M76.745,77.084a3.087,3.087,0,0,1,.206-1.127,2.733,2.733,0,0,1,.6-.932,2.9,2.9,0,0,1,.943-.639,3.119,3.119,0,0,1,1.246-.239,2.983,2.983,0,0,1,1.588.4,2.561,2.561,0,0,1,.981,1.052l-1.42.433a1.277,1.277,0,0,0-.488-.482,1.353,1.353,0,0,0-.672-.168,1.385,1.385,0,0,0-.586.124,1.439,1.439,0,0,0-.471.347,1.6,1.6,0,0,0-.314.537,2.031,2.031,0,0,0-.114.694,1.943,1.943,0,0,0,.118.694,1.756,1.756,0,0,0,.32.542,1.407,1.407,0,0,0,.472.353,1.356,1.356,0,0,0,.574.125,1.4,1.4,0,0,0,.721-.2,1.1,1.1,0,0,0,.461-.477l1.42.434a2.388,2.388,0,0,1-.965,1.062,3.034,3.034,0,0,1-1.615.412,3.127,3.127,0,0,1-1.247-.239,2.825,2.825,0,0,1-1.545-1.588,3.042,3.042,0,0,1-.211-1.122" transform="translate(-3.423 -3.308)" fill="#f6f6f6"/>
          <path id="Path_10058" data-name="Path 10058" d="M88.8,79.824H87.344V76.636a1.611,1.611,0,0,0-.249-.992.841.841,0,0,0-.7-.319,1.108,1.108,0,0,0-.413.087,1.585,1.585,0,0,0-.412.244,2.08,2.08,0,0,0-.357.374,1.481,1.481,0,0,0-.239.477v3.317H83.518V71.911H84.97V75.2a2.2,2.2,0,0,1,.851-.851,2.4,2.4,0,0,1,1.187-.3,1.861,1.861,0,0,1,.9.19,1.428,1.428,0,0,1,.542.5,2.083,2.083,0,0,1,.271.716,4.5,4.5,0,0,1,.075.824Z" transform="translate(-3.726 -3.208)" fill="#f6f6f6"/>
          <path id="Path_10059" data-name="Path 10059" d="M92.987,80.032a3.143,3.143,0,0,1-1.235-.233,2.784,2.784,0,0,1-1.545-1.566A3,3,0,0,1,90,77.116a3.163,3.163,0,0,1,.206-1.144,2.777,2.777,0,0,1,.6-.943,2.863,2.863,0,0,1,.948-.645A3.165,3.165,0,0,1,93,74.147a3.085,3.085,0,0,1,1.241.238,2.864,2.864,0,0,1,.932.64,2.717,2.717,0,0,1,.586.932,3.108,3.108,0,0,1,.2,1.106c0,.094,0,.183-.006.27a1.135,1.135,0,0,1-.027.217h-4.39a1.686,1.686,0,0,0,.162.6,1.46,1.46,0,0,0,.336.444,1.444,1.444,0,0,0,.466.282,1.528,1.528,0,0,0,.542.1,1.677,1.677,0,0,0,.818-.211,1.119,1.119,0,0,0,.526-.558l1.246.347a2.529,2.529,0,0,1-1,1.067,3.1,3.1,0,0,1-1.642.417m1.474-3.425a1.512,1.512,0,0,0-.471-1.024,1.519,1.519,0,0,0-1.561-.282,1.421,1.421,0,0,0-.45.288,1.479,1.479,0,0,0-.32.444,1.561,1.561,0,0,0-.146.574Z" transform="translate(-4.015 -3.308)" fill="#f6f6f6"/>
          <path id="Path_10060" data-name="Path 10060" d="M100.036,79.834v-7.7h5.171V73.45h-3.674v1.983h3.056v1.213h-3.056v3.187Z" transform="translate(-4.462 -3.218)" fill="#f6f6f6"/>
          <path id="Path_10061" data-name="Path 10061" d="M109.339,75.5a2.857,2.857,0,0,0-1.181.255,1.482,1.482,0,0,0-.747.731v3.437h-1.454v-5.68h1.335v1.214a2.538,2.538,0,0,1,.357-.526,2.763,2.763,0,0,1,.443-.406,2.066,2.066,0,0,1,.482-.266,1.345,1.345,0,0,1,.472-.092h.179a.546.546,0,0,1,.114.011Z" transform="translate(-4.727 -3.309)" fill="#f6f6f6"/>
          <path id="Path_10062" data-name="Path 10062" d="M111.8,80.032a2.147,2.147,0,0,1-.77-.136,1.842,1.842,0,0,1-.617-.379,1.758,1.758,0,0,1-.407-.569,1.723,1.723,0,0,1-.146-.715,1.578,1.578,0,0,1,.179-.743,1.7,1.7,0,0,1,.5-.579,2.47,2.47,0,0,1,.764-.375,3.348,3.348,0,0,1,.975-.136,4.231,4.231,0,0,1,.742.065,3.083,3.083,0,0,1,.645.184v-.325a1.137,1.137,0,0,0-.32-.868,1.332,1.332,0,0,0-.948-.3,2.5,2.5,0,0,0-.889.162,4.14,4.14,0,0,0-.889.477l-.444-.921a4.192,4.192,0,0,1,2.363-.727,2.766,2.766,0,0,1,1.9.6,2.2,2.2,0,0,1,.678,1.74v1.767a.519.519,0,0,0,.08.326.356.356,0,0,0,.267.108v1.235a3.248,3.248,0,0,1-.64.076.963.963,0,0,1-.633-.184.791.791,0,0,1-.277-.488l-.032-.314a2.522,2.522,0,0,1-.921.76,2.652,2.652,0,0,1-1.16.26m.412-1.062a1.89,1.89,0,0,0,.7-.13,1.282,1.282,0,0,0,.515-.347.522.522,0,0,0,.238-.412v-.651a3.583,3.583,0,0,0-.564-.158,3.081,3.081,0,0,0-.585-.059,1.552,1.552,0,0,0-.922.255.766.766,0,0,0-.357.645.775.775,0,0,0,.282.612,1.021,1.021,0,0,0,.694.244" transform="translate(-4.901 -3.308)" fill="#f6f6f6"/>
          <path id="Path_10063" data-name="Path 10063" d="M118.988,79.956a2.336,2.336,0,0,1-1.04-.227,2.494,2.494,0,0,1-.807-.624,2.846,2.846,0,0,1-.526-.915,3.446,3.446,0,0,1,.011-2.255,3.017,3.017,0,0,1,.543-.932,2.468,2.468,0,0,1,.835-.629,2.5,2.5,0,0,1,1.073-.227,2.212,2.212,0,0,1,1.159.3,2.494,2.494,0,0,1,.824.8v-1h1.27v5.408a2.586,2.586,0,0,1-.239,1.127,2.471,2.471,0,0,1-.656.846,2.931,2.931,0,0,1-1,.531,4.139,4.139,0,0,1-1.263.184,3.571,3.571,0,0,1-1.566-.309,3.188,3.188,0,0,1-1.088-.873l.791-.769a2.26,2.26,0,0,0,.818.629,2.462,2.462,0,0,0,1.045.227,2.223,2.223,0,0,0,.646-.093,1.568,1.568,0,0,0,.548-.287,1.339,1.339,0,0,0,.373-.5,1.736,1.736,0,0,0,.136-.716v-.715a1.921,1.921,0,0,1-.791.753,2.338,2.338,0,0,1-1.095.266m.488-1.16a1.368,1.368,0,0,0,.455-.075,1.628,1.628,0,0,0,.4-.206,1.609,1.609,0,0,0,.325-.3,1.355,1.355,0,0,0,.217-.368V76.487a1.763,1.763,0,0,0-.613-.8,1.46,1.46,0,0,0-.872-.3,1.254,1.254,0,0,0-.606.146,1.492,1.492,0,0,0-.466.391,1.771,1.771,0,0,0-.3.558,2.1,2.1,0,0,0-.1.651,1.769,1.769,0,0,0,.119.651,1.7,1.7,0,0,0,.331.531,1.6,1.6,0,0,0,.493.357,1.458,1.458,0,0,0,.619.13" transform="translate(-5.194 -3.308)" fill="#f6f6f6"/>
          <path id="Path_10064" data-name="Path 10064" d="M127.355,75.5a2.857,2.857,0,0,0-1.181.255,1.488,1.488,0,0,0-.748.731v3.437h-1.453v-5.68h1.334v1.214a2.614,2.614,0,0,1,.357-.526,2.81,2.81,0,0,1,.444-.406,2.066,2.066,0,0,1,.482-.266,1.337,1.337,0,0,1,.472-.092h.179a.546.546,0,0,1,.114.011Z" transform="translate(-5.53 -3.309)" fill="#f6f6f6"/>
          <path id="Path_10065" data-name="Path 10065" d="M129.817,80.032a2.147,2.147,0,0,1-.77-.136,1.842,1.842,0,0,1-.617-.379,1.758,1.758,0,0,1-.407-.569,1.723,1.723,0,0,1-.146-.715,1.578,1.578,0,0,1,.179-.743,1.7,1.7,0,0,1,.5-.579,2.47,2.47,0,0,1,.764-.375,3.348,3.348,0,0,1,.975-.136,4.231,4.231,0,0,1,.742.065,3.082,3.082,0,0,1,.645.184v-.325a1.137,1.137,0,0,0-.32-.868,1.332,1.332,0,0,0-.948-.3,2.5,2.5,0,0,0-.889.162,4.139,4.139,0,0,0-.889.477l-.444-.921a4.192,4.192,0,0,1,2.363-.727,2.766,2.766,0,0,1,1.9.6,2.2,2.2,0,0,1,.678,1.74v1.767a.519.519,0,0,0,.08.326.356.356,0,0,0,.267.108v1.235a3.248,3.248,0,0,1-.64.076.963.963,0,0,1-.633-.184.791.791,0,0,1-.277-.488l-.032-.314a2.522,2.522,0,0,1-.921.76,2.652,2.652,0,0,1-1.16.26m.412-1.062a1.891,1.891,0,0,0,.7-.13,1.281,1.281,0,0,0,.515-.347.522.522,0,0,0,.238-.412v-.651a3.582,3.582,0,0,0-.564-.158,3.081,3.081,0,0,0-.585-.059,1.551,1.551,0,0,0-.922.255.766.766,0,0,0-.357.645.775.775,0,0,0,.282.612,1.021,1.021,0,0,0,.694.244" transform="translate(-5.704 -3.308)" fill="#f6f6f6"/>
          <path id="Path_10066" data-name="Path 10066" d="M140.076,79.923h-1.452V76.736a1.654,1.654,0,0,0-.239-1,.781.781,0,0,0-.661-.314,1.235,1.235,0,0,0-.444.087,1.61,1.61,0,0,0-.428.244,1.983,1.983,0,0,0-.363.374,1.481,1.481,0,0,0-.239.477v3.317H134.8v-5.68h1.312V75.3a2.146,2.146,0,0,1,.911-.846,2.917,2.917,0,0,1,1.343-.3,1.713,1.713,0,0,1,.867.195,1.412,1.412,0,0,1,.521.51,2.131,2.131,0,0,1,.254.715,4.617,4.617,0,0,1,.071.813Z" transform="translate(-6.013 -3.308)" fill="#f6f6f6"/>
          <path id="Path_10067" data-name="Path 10067" d="M141.275,77.084a3.087,3.087,0,0,1,.206-1.127,2.733,2.733,0,0,1,.6-.932,2.9,2.9,0,0,1,.943-.639,3.119,3.119,0,0,1,1.246-.239,2.983,2.983,0,0,1,1.588.4,2.561,2.561,0,0,1,.981,1.052l-1.42.433a1.277,1.277,0,0,0-.488-.482,1.353,1.353,0,0,0-.672-.168,1.385,1.385,0,0,0-.586.124,1.439,1.439,0,0,0-.471.347,1.6,1.6,0,0,0-.314.537,2.031,2.031,0,0,0-.114.694,1.943,1.943,0,0,0,.118.694,1.756,1.756,0,0,0,.32.542,1.407,1.407,0,0,0,.472.353,1.356,1.356,0,0,0,.574.125,1.4,1.4,0,0,0,.721-.2,1.1,1.1,0,0,0,.461-.477l1.42.434a2.389,2.389,0,0,1-.965,1.062,3.034,3.034,0,0,1-1.615.412,3.127,3.127,0,0,1-1.247-.239,2.825,2.825,0,0,1-1.545-1.588,3.042,3.042,0,0,1-.211-1.122" transform="translate(-6.302 -3.308)" fill="#f6f6f6"/>
          <path id="Path_10068" data-name="Path 10068" d="M150.608,80.032a3.143,3.143,0,0,1-1.235-.233,2.784,2.784,0,0,1-1.545-1.566,3,3,0,0,1-.211-1.117,3.163,3.163,0,0,1,.206-1.144,2.777,2.777,0,0,1,.6-.943,2.863,2.863,0,0,1,.948-.645,3.165,3.165,0,0,1,1.253-.238,3.085,3.085,0,0,1,1.241.238,2.864,2.864,0,0,1,.932.64,2.717,2.717,0,0,1,.586.932,3.108,3.108,0,0,1,.2,1.106c0,.094,0,.183-.006.27a1.136,1.136,0,0,1-.027.217h-4.39a1.687,1.687,0,0,0,.162.6,1.46,1.46,0,0,0,.336.444,1.444,1.444,0,0,0,.466.282,1.528,1.528,0,0,0,.542.1,1.677,1.677,0,0,0,.818-.211,1.119,1.119,0,0,0,.526-.558l1.246.347a2.529,2.529,0,0,1-1,1.067,3.1,3.1,0,0,1-1.642.417m1.474-3.425a1.512,1.512,0,0,0-.471-1.024,1.519,1.519,0,0,0-1.561-.282,1.421,1.421,0,0,0-.45.288,1.479,1.479,0,0,0-.32.444,1.58,1.58,0,0,0-.146.574Z" transform="translate(-6.585 -3.308)" fill="#f6f6f6"/>
          <path id="Path_10069" data-name="Path 10069" d="M156.914,80.032a4.395,4.395,0,0,1-1.4-.227,3.422,3.422,0,0,1-1.17-.651l.542-.91a4.662,4.662,0,0,0,1.014.558,2.707,2.707,0,0,0,.981.19,1.242,1.242,0,0,0,.682-.162.523.523,0,0,0,.25-.466.466.466,0,0,0-.293-.444,6.276,6.276,0,0,0-.953-.326c-.369-.1-.683-.2-.943-.292a2.4,2.4,0,0,1-.629-.32,1.075,1.075,0,0,1-.347-.412,1.306,1.306,0,0,1-.109-.558,1.772,1.772,0,0,1,.168-.781,1.694,1.694,0,0,1,.472-.59,2.18,2.18,0,0,1,.71-.375,2.9,2.9,0,0,1,.883-.13,3.815,3.815,0,0,1,1.2.184,2.925,2.925,0,0,1,1.024.6l-.585.878a3.406,3.406,0,0,0-.841-.477,2.29,2.29,0,0,0-.807-.152,1.169,1.169,0,0,0-.618.152.528.528,0,0,0-.249.488.467.467,0,0,0,.06.248.518.518,0,0,0,.189.174,1.838,1.838,0,0,0,.342.146c.14.047.316.1.525.146q.585.152,1,.3a2.721,2.721,0,0,1,.683.347,1.237,1.237,0,0,1,.391.45,1.381,1.381,0,0,1,.124.612,1.582,1.582,0,0,1-.617,1.317,2.663,2.663,0,0,1-1.681.482" transform="translate(-6.885 -3.307)" fill="#f6f6f6"/>
        </g>
      </g>
    </g>
    <text id="Maison_de_l_Avenir_House_of_the_Future_is_a_visionary_Fine_Niche_Fragrance_brand_founded_in_2024_by_Sunit_Sheth._It_seamlessly_blends_a_timeless_fragrance_heritage_with_cutting-edge_innovation_to_deliver_exceptional_fragrances_and_value_to_customers." data-name="Maison de l’Avenir (House of the Future) is a visionary Fine Niche Fragrance brand, founded in 2024 by Sunit Sheth. It seamlessly blends a timeless fragrance heritage with cutting-edge innovation, to deliver exceptional fragrances and value to customers." transform="translate(140 3435)" fill="#fff" font-size="17" font-family="Raleway-Regular, Raleway"><tspan x="0" y="16">Maison de l’Avenir (House of the Future) is a visionary Fine Niche </tspan><tspan x="0" y="39">Fragrance brand, founded in 2024 by Sunit Sheth. It seamlessly </tspan><tspan x="0" y="62">blends a timeless fragrance heritage with cutting-edge innovation, </tspan><tspan x="0" y="85">to deliver exceptional fragrances and value to customers.</tspan></text>
  </g>
</svg>
