<?xml version="1.0" encoding="UTF-8"?>
<svg id="Layer_2" data-name="Layer 2" xmlns="http://www.w3.org/2000/svg" viewBox="0 0 22.46 22.46">
  <defs>
    <style>
      .cls-1 {
        fill: #fff;
      }
    </style>
  </defs>
  <g id="Layer_1-2" data-name="Layer 1">
    <path class="cls-1" d="M11.23,0C5.03,0,0,5.03,0,11.23s5.03,11.23,11.23,11.23,11.23-5.03,11.23-11.23S17.43,0,11.23,0ZM15.29,12.82c-.77.99-1.85,1.53-3.06,1.53-.64,0-1.3-.27-1.71-.66-.13.53-.35,1.39-.42,1.62-.08.28-.84,2.76-1.68,2.53-.75-.2-.3-2.75-.22-3.07.13-.55.82-3.48.94-3.97-.07-.17-.23-.61-.23-1.19,0-1.2.72-2.13,1.64-2.13.73,0,1.21.53,1.21,1.33,0,.46-.18,1.04-.37,1.66-.1.34-.21.69-.29,1.02-.07.3-.01.58.16.8.18.23.48.37.8.37.75,0,1.24-.58,1.52-1.06.4-.7.62-1.64.62-2.67,0-1.62-1.1-2.63-2.87-2.63-2.23,0-3.44,1.72-3.44,3.34,0,.54.14.96.44,1.32.16.19.22.33.15.6-.04.14-.12.46-.15.6-.06.23-.23.37-.45.37-.07,0-.14-.01-.21-.04-1.03-.42-1.65-1.55-1.65-3.03,0-1.18.51-2.36,1.39-3.26.72-.73,2.01-1.59,4.12-1.59,1.38,0,2.64.48,3.56,1.36.86.82,1.35,1.96,1.35,3.1,0,1.47-.41,2.8-1.15,3.76Z"/>
  </g>
</svg>